<?xml version="1.0" standalone="no"?>
<!DOCTYPE svg PUBLIC "-//W3C//DTD SVG 20010904//EN"
 "http://www.w3.org/TR/2001/REC-SVG-20010904/DTD/svg10.dtd">
<svg version="1.0" xmlns="http://www.w3.org/2000/svg"
 width="500.000000pt" height="500.000000pt" viewBox="0 0 500.000000 500.000000"
 preserveAspectRatio="xMidYMid meet">
<metadata>
Created by potrace 1.14, written by Peter Selinger 2001-2017
</metadata>
<g transform="translate(0.000000,500.000000) scale(0.100000,-0.100000)"
fill="#000000" stroke="none">
<path d="M2175 4984 c15 -11 21 -11 28 -1 6 9 7 8 4 -3 -2 -10 -13 -14 -30
-12 -15 2 -27 -1 -27 -6 0 -6 9 -8 20 -5 14 4 20 0 20 -11 0 -9 -4 -16 -10
-16 -5 0 -10 -5 -10 -11 0 -8 4 -8 14 0 10 8 16 9 21 1 3 -6 10 -8 14 -6 4 3
8 -1 8 -8 0 -16 -61 -13 -81 3 -7 6 -16 8 -20 4 -4 -4 -18 -8 -31 -9 -20 -1
-22 2 -14 17 7 15 6 17 -11 14 -11 -2 -20 2 -20 8 0 7 -5 4 -11 -6 -7 -12 -15
-15 -22 -9 -7 5 -25 9 -42 8 -16 -1 -40 2 -53 6 -15 5 -21 4 -17 -2 3 -6 1
-10 -6 -10 -9 0 -8 -4 1 -15 11 -13 29 -18 105 -29 63 -8 111 -19 129 -29 11
-5 49 -11 85 -13 40 -2 65 -7 64 -13 -2 -6 3 -10 10 -8 6 1 11 -4 9 -12 -2
-11 3 -10 24 4 14 9 24 12 20 7 -11 -18 9 -22 37 -7 30 15 45 4 22 -15 -8 -7
-15 -18 -15 -24 0 -6 -20 -22 -43 -36 -23 -14 -59 -43 -79 -64 -30 -32 -39
-37 -51 -27 -20 16 -74 22 -103 11 -14 -6 -26 -6 -29 0 -8 13 -25 13 -25 -1 0
-5 4 -7 10 -4 6 3 7 -1 4 -9 -3 -9 -1 -16 5 -16 6 0 11 -5 11 -12 0 -6 -3 -8
-6 -5 -4 3 -14 2 -24 -3 -19 -10 -62 -2 -55 10 3 5 18 7 35 5 20 -3 28 0 24 9
-5 14 -34 18 -34 4 0 -4 -3 -7 -7 -6 -5 1 -18 -1 -30 -6 -32 -10 -87 22 -68
40 12 13 36 10 89 -12 15 -6 17 -4 11 7 -8 12 -6 12 8 0 11 -9 17 -10 17 -2 0
10 -5 12 -37 15 -7 1 -22 9 -33 19 -11 9 -20 14 -20 12 0 -3 -10 1 -23 10 -13
8 -27 12 -30 8 -4 -3 -7 8 -7 25 0 22 5 32 15 32 20 0 19 26 -1 34 -27 10 -32
7 -45 -28 -7 -19 -16 -33 -21 -30 -5 3 -5 10 -2 16 4 6 2 8 -4 4 -6 -3 -17 3
-25 15 -11 15 -16 17 -20 7 -3 -7 -6 2 -6 20 -1 19 -6 31 -13 30 -7 -2 -12 4
-13 12 0 8 -5 15 -12 15 -6 0 -15 3 -19 8 -4 4 -2 7 5 7 7 0 9 5 6 10 -8 13
-42 13 -51 -1 -4 -8 1 -9 16 -4 17 6 21 4 14 -6 -12 -20 -14 -40 -3 -33 5 3 9
-4 9 -15 0 -19 8 -25 28 -18 4 1 6 6 4 12 -2 5 0 7 4 2 11 -10 13 -47 2 -41
-4 3 -5 -2 -2 -10 3 -8 12 -12 19 -10 9 4 12 0 8 -14 -6 -25 -47 -21 -108 10
-22 12 -42 20 -44 19 -2 -2 -8 4 -13 13 -5 9 -14 14 -19 11 -5 -4 -6 -11 -3
-17 4 -7 2 -8 -4 -4 -7 4 -12 1 -12 -8 0 -9 7 -16 15 -16 8 0 15 -4 15 -10 0
-15 81 -53 120 -56 19 -1 47 -7 63 -13 26 -10 27 -13 21 -53 -4 -24 -12 -50
-19 -58 -18 -23 -25 -49 -15 -55 5 -3 -2 -18 -16 -34 -19 -21 -31 -27 -51 -23
-20 4 -24 2 -18 -9 5 -8 -5 1 -22 19 -17 17 -36 32 -42 32 -6 0 -20 8 -31 18
-11 9 -22 15 -23 12 -2 -3 -18 10 -36 29 -27 27 -32 30 -26 13 6 -21 -2 -27
-28 -23 -5 1 -5 -3 -2 -9 4 -6 13 -9 20 -6 7 2 16 -2 19 -10 3 -9 12 -12 18
-9 7 4 5 0 -5 -8 -15 -12 -16 -19 -6 -41 7 -14 16 -26 21 -26 5 0 6 5 3 10 -3
6 -1 10 4 10 14 0 14 1 -9 -45 -15 -30 -17 -41 -7 -48 8 -6 6 -7 -7 -3 -11 4
-26 0 -37 -10 -12 -11 -19 -13 -19 -5 0 7 -5 9 -10 6 -7 -5 -8 -11 -1 -19 7
-8 6 -17 -1 -26 -8 -12 -9 -12 -4 2 3 11 -2 22 -14 28 -11 6 -20 8 -20 5 0 -3
-9 -1 -19 4 -29 16 -21 87 13 116 14 12 22 26 18 30 -4 4 3 5 14 1 18 -5 21
-3 20 16 0 13 -5 26 -11 30 -6 5 -4 8 5 8 13 0 13 1 0 10 -9 6 -10 10 -3 10 6
0 15 -5 18 -10 9 -15 25 -2 19 15 -4 8 -10 12 -16 9 -5 -3 -8 2 -6 12 2 15 -2
18 -20 17 -13 -2 -21 1 -17 7 3 6 -1 7 -9 4 -10 -4 -16 -1 -16 7 -1 10 -4 9
-11 -3 -5 -10 -16 -15 -24 -12 -8 4 -15 2 -15 -3 0 -6 -19 -9 -42 -8 -24 2
-37 1 -30 -2 6 -3 10 -8 7 -13 -3 -5 3 -7 12 -5 10 1 25 -3 33 -9 13 -9 13 -9
3 5 -11 13 -6 15 38 15 38 1 49 -2 45 -13 -4 -9 -1 -12 7 -7 9 5 9 4 0 -6 -6
-7 -23 -12 -37 -12 -14 0 -26 -6 -26 -12 0 -8 -2 -8 -8 0 -4 6 -16 13 -28 16
-20 5 -21 2 -20 -113 1 -76 -3 -119 -9 -119 -6 0 -11 -9 -11 -20 0 -11 4 -20
8 -20 4 0 8 6 8 13 0 14 39 41 48 33 3 -3 -2 -14 -11 -24 -10 -10 -15 -21 -12
-23 2 -3 -8 -4 -23 -4 -15 1 -33 -4 -41 -9 -11 -8 -13 -8 -7 2 4 6 2 12 -3 12
-6 0 -11 -4 -11 -9 0 -5 -8 -8 -17 -7 -10 2 -22 -2 -26 -8 -5 -6 -6 0 -2 14 6
24 5 24 -10 6 -11 -15 -18 -17 -26 -9 -17 17 -1 34 28 28 20 -3 23 -1 15 7 -7
7 -12 31 -12 55 0 24 -5 43 -10 43 -22 0 -61 -33 -56 -47 3 -8 -1 -16 -10 -20
-20 -7 -35 -46 -40 -105 -4 -43 -3 -47 13 -41 19 7 18 5 -10 -17 -16 -11 -18
-11 -15 1 4 17 -36 15 -96 -6 -23 -8 -42 -10 -44 -5 -3 9 -58 -6 -79 -22 -7
-5 -18 -6 -24 -2 -8 4 -9 3 -5 -4 6 -11 -12 -17 -36 -13 -5 0 -8 -4 -8 -9 0
-6 -5 -10 -11 -10 -5 0 -7 5 -4 10 3 6 1 10 -4 10 -6 0 -11 -3 -11 -7 0 -5
-18 -9 -40 -10 -23 0 -48 -7 -57 -15 -14 -11 -15 -11 -9 0 6 10 0 9 -23 -2
-17 -9 -31 -14 -31 -11 0 3 -20 -6 -43 -20 -24 -14 -47 -22 -52 -17 -4 4 -4 1
0 -7 6 -10 4 -13 -7 -9 -8 4 -15 0 -15 -7 0 -10 5 -11 17 -5 9 5 22 5 30 0 16
-10 30 -4 30 11 0 6 -10 8 -22 4 -20 -5 -21 -4 -5 5 9 6 22 8 29 4 7 -5 8 -3
3 6 -6 9 -4 11 5 5 8 -5 11 -4 7 3 -5 6 0 8 13 5 11 -3 20 -9 20 -14 0 -5 -8
-5 -18 -2 -14 6 -15 4 -5 -8 10 -12 10 -18 1 -27 -14 -14 3 -17 18 -3 5 6 15
3 24 -7 13 -14 12 -15 -4 -9 -10 4 -25 2 -32 -4 -10 -8 -14 -9 -14 0 0 8 -6 8
-20 -1 -11 -7 -20 -19 -20 -27 0 -11 -5 -9 -22 5 -19 16 -20 16 -9 1 19 -24
10 -29 -54 -29 -41 0 -58 -5 -65 -17 -6 -10 -10 -11 -10 -3 0 17 -20 15 -20
-3 0 -8 -5 -15 -11 -15 -5 0 -8 4 -4 9 3 5 0 13 -6 17 -8 4 -9 3 -5 -4 4 -7 3
-12 -3 -12 -5 0 -12 6 -15 13 -3 6 -4 0 -1 -15 3 -15 1 -30 -5 -33 -6 -4 -7 1
-3 11 5 13 3 16 -10 11 -9 -3 -17 -2 -17 3 0 11 -51 2 -64 -11 -6 -5 -6 -9 -2
-9 5 0 3 -7 -4 -15 -7 -8 -17 -15 -23 -15 -6 0 -3 6 8 13 11 9 14 16 8 20 -6
4 -13 0 -17 -8 -3 -8 -16 -15 -28 -15 -13 0 -18 -4 -13 -8 16 -12 16 -29 -2
-43 -14 -12 -15 -11 -10 11 4 14 4 20 1 14 -3 -7 -15 -10 -27 -8 -13 3 -16 1
-7 -2 8 -4 19 -13 23 -21 8 -13 11 -13 25 0 10 8 27 13 39 12 13 -1 23 3 23 8
0 5 -9 7 -20 4 -13 -3 -18 -1 -13 5 4 7 1 8 -7 3 -8 -5 -11 -4 -6 3 9 15 51
-1 51 -19 0 -8 -7 -13 -16 -11 -9 1 -16 -5 -16 -13 0 -9 6 -14 13 -11 8 3 11
0 8 -8 -8 -20 -33 -15 -29 6 3 12 -1 18 -8 15 -7 -2 -12 -9 -12 -15 0 -5 -4
-14 -9 -19 -5 -5 -6 -3 -2 5 4 6 2 12 -4 12 -7 0 -10 -7 -6 -17 5 -15 4 -15
-9 1 -8 11 -15 23 -15 27 0 4 -8 10 -17 13 -16 6 -16 6 0 -12 22 -24 21 -27
-3 -29 -13 -1 -18 2 -14 9 5 7 2 8 -5 3 -10 -6 -10 -11 2 -22 21 -21 49 -23
70 -5 16 14 19 14 27 2 6 -8 10 -10 10 -5 0 6 12 12 27 13 15 1 32 7 38 14 7
8 5 9 -7 5 -17 -6 -20 15 -3 30 4 4 5 2 1 -4 -7 -12 5 -18 27 -14 5 1 6 -3 2
-9 -3 -5 -1 -10 4 -10 6 0 11 7 11 15 0 8 5 15 11 15 5 0 7 -4 4 -10 -3 -5 -2
-10 3 -10 5 0 12 9 15 21 4 13 10 18 17 14 9 -6 9 -10 -1 -16 -10 -6 -10 -9
-2 -9 7 0 17 8 22 18 6 9 11 12 11 6 0 -7 11 -9 25 -6 14 2 22 8 19 13 -3 5
-9 7 -14 4 -5 -3 -11 -1 -14 4 -6 10 12 9 29 -1 6 -3 27 -5 47 -4 21 0 40 -4
42 -10 3 -7 -3 -10 -15 -7 -14 4 -19 0 -19 -13 0 -15 -2 -16 -9 -5 -8 12 -17
11 -56 -8 -25 -12 -51 -18 -57 -15 -7 4 -8 3 -4 -4 5 -8 -1 -12 -14 -12 -12 0
-19 -4 -16 -9 3 -5 -1 -12 -10 -15 -8 -3 -12 -2 -9 4 3 6 -1 7 -9 4 -9 -3 -13
-11 -9 -18 3 -6 1 -6 -8 2 -19 17 -27 15 -39 -10 -10 -21 -10 -21 3 -5 17 21
24 22 24 2 0 -8 -4 -12 -8 -9 -4 2 -10 0 -14 -6 -4 -6 -11 -8 -16 -5 -5 4 -9
2 -9 -4 0 -5 -9 -8 -20 -6 -11 2 -22 -1 -25 -6 -4 -5 -11 -6 -17 -3 -6 4 -8 2
-4 -4 3 -5 0 -13 -6 -15 -8 -3 -6 -6 5 -6 9 -1 17 5 17 12 0 8 3 7 9 -3 13
-20 6 -27 -26 -25 -36 2 -86 -22 -77 -37 5 -8 1 -9 -10 -5 -9 4 -15 3 -12 -1
3 -4 -4 -13 -15 -20 -14 -9 -19 -9 -19 0 0 6 -3 9 -6 5 -3 -3 -3 -11 1 -17 5
-8 10 -8 20 0 8 7 20 8 26 4 7 -4 9 -3 6 3 -4 6 0 14 9 17 8 3 13 10 10 15 -3
5 1 12 10 15 12 4 14 1 9 -14 -4 -12 -2 -20 5 -20 6 0 8 5 4 12 -5 7 -2 9 9 5
8 -3 17 0 20 6 3 7 27 21 55 32 43 16 49 21 39 34 -10 12 -9 13 9 3 18 -9 25
-8 40 10 11 12 13 18 5 13 -9 -5 -12 -4 -8 3 4 5 15 9 25 7 9 -1 26 2 37 8 11
6 26 10 34 8 9 -2 12 3 7 14 -4 11 -2 14 7 8 16 -10 60 -4 69 11 6 8 8 8 8 -1
0 -7 8 -13 18 -13 15 0 15 2 2 11 -12 8 -11 9 5 7 11 -2 26 3 33 12 10 13 11
12 5 -5 -6 -18 -5 -18 10 -6 9 7 17 10 17 7 0 -4 10 -1 23 6 12 7 26 11 30 10
13 -4 67 31 61 39 -2 4 6 5 18 2 17 -3 19 -2 9 5 -8 6 -9 12 -3 16 5 3 13 -1
16 -10 3 -9 11 -12 18 -8 33 18 -27 -33 -83 -71 -44 -30 -66 -40 -71 -32 -6 9
-8 9 -8 1 0 -7 -9 -14 -20 -17 -11 -3 -20 -10 -20 -16 0 -6 8 -8 18 -5 14 5
14 4 2 -4 -8 -6 -17 -9 -22 -6 -4 3 -22 -2 -40 -9 -18 -8 -39 -12 -46 -9 -7 2
-18 0 -25 -6 -7 -5 -20 -8 -29 -7 -11 2 -18 -3 -18 -11 0 -9 5 -12 12 -8 7 5
8 3 3 -6 -6 -10 -11 -9 -21 5 -13 17 -51 14 -40 -4 3 -5 -1 -12 -10 -15 -8 -3
-12 -2 -9 4 3 6 1 10 -4 10 -6 0 -11 -5 -11 -11 0 -5 -5 -7 -10 -4 -6 3 -10 1
-10 -5 0 -6 -4 -8 -10 -5 -5 3 -21 -5 -35 -19 -14 -14 -25 -22 -25 -19 0 4
-13 -6 -29 -21 -16 -15 -33 -28 -38 -28 -4 0 -10 -2 -13 -5 -3 -4 1 -3 9 2 9
5 12 3 9 -6 -6 -17 -29 -19 -41 -4 -5 6 -7 3 -4 -7 7 -20 -11 -37 -36 -33 -9
2 -15 -1 -11 -6 3 -5 10 -7 15 -4 5 4 9 0 9 -8 0 -8 -8 -14 -18 -13 -11 1 -16
-5 -14 -16 2 -10 -1 -18 -7 -18 -5 0 -8 15 -6 33 3 23 2 28 -5 17 -13 -20 -13
-90 0 -90 6 0 10 -5 10 -11 0 -5 -4 -7 -10 -4 -5 3 -10 1 -10 -4 0 -13 10 -14
28 -3 8 5 10 16 6 27 -6 15 -4 17 10 12 14 -6 17 -3 12 9 -5 14 -4 15 8 5 11
-9 17 -8 30 4 9 9 16 13 16 9 0 -5 5 -3 12 4 17 17 25 15 31 -8 3 -13 0 -20
-10 -20 -8 0 -11 4 -8 10 3 6 -1 7 -10 4 -14 -6 -14 -8 2 -20 17 -12 16 -13
-5 -9 -12 2 -20 0 -17 -6 4 -5 1 -9 -5 -9 -6 0 -8 -5 -4 -12 6 -10 4 -10 -8 0
-9 7 -18 9 -20 5 -1 -4 -16 -16 -33 -25 -28 -16 -30 -21 -30 -77 0 -63 4 -71
25 -46 13 16 6 50 -9 41 -13 -8 -8 19 7 36 6 8 10 17 7 20 -3 2 1 5 9 5 17 0
9 -27 -8 -27 -6 -1 0 -7 14 -16 25 -15 25 -15 1 -8 -16 4 -21 3 -17 -5 10 -16
36 -14 42 4 4 8 10 12 15 9 5 -3 9 0 9 5 0 6 7 11 15 11 8 0 15 5 15 10 0 6 7
10 16 10 14 0 15 2 3 17 -8 9 -9 14 -3 10 6 -3 22 0 35 7 35 18 82 29 75 17
-3 -5 18 -3 46 5 29 7 65 11 80 9 16 -3 28 -1 28 5 0 15 17 12 24 -5 3 -8 2
-14 -2 -12 -4 1 -18 -8 -32 -21 -13 -12 -30 -20 -37 -18 -7 3 -10 -1 -6 -10 3
-7 0 -14 -7 -14 -6 0 -8 -5 -4 -12 4 -7 3 -8 -5 -4 -6 4 -9 11 -6 16 3 5 1 11
-5 15 -6 4 -7 12 -4 18 4 7 3 8 -2 4 -5 -5 -10 -13 -10 -18 -1 -5 -2 -14 -3
-20 0 -5 -5 -8 -10 -4 -5 3 -13 -4 -16 -16 -4 -12 -10 -18 -14 -13 -11 16 -34
16 -28 0 3 -8 -1 -17 -9 -20 -10 -4 -12 -2 -8 6 4 7 3 8 -4 4 -7 -4 -12 -15
-13 -24 0 -10 -3 -12 -5 -5 -6 14 -54 -3 -54 -19 0 -5 -5 -6 -12 -2 -8 5 -9 2
-4 -11 6 -16 4 -16 -11 -4 -14 12 -16 12 -9 0 6 -9 5 -12 -5 -9 -16 5 -45 -20
-35 -30 4 -3 10 -2 14 4 4 5 18 10 32 11 14 1 19 -1 12 -4 -6 -3 -9 -10 -5
-16 4 -7 1 -7 -9 1 -11 9 -18 10 -23 2 -3 -5 0 -10 7 -10 8 0 7 -4 -4 -11 -9
-5 -15 -16 -12 -23 3 -8 0 -17 -7 -22 -8 -5 -11 -2 -7 8 8 18 -26 40 -48 31
-13 -5 -15 -3 -9 8 5 8 4 11 -1 6 -14 -13 -12 -66 3 -60 6 3 13 13 15 24 2 13
7 16 17 10 12 -8 12 -12 2 -24 -9 -12 -9 -17 0 -22 8 -6 7 -10 -5 -17 -9 -5
-16 -14 -16 -19 0 -6 10 -3 22 5 12 9 27 16 33 16 5 0 -3 -8 -20 -19 -16 -10
-37 -17 -46 -16 -9 2 -16 -2 -16 -9 0 -7 10 -12 23 -10 18 2 22 -2 19 -22 -1
-14 -5 -27 -9 -31 -3 -3 -1 -11 4 -18 7 -8 6 -12 -3 -12 -7 0 -13 12 -12 28 0
15 4 25 9 22 5 -3 7 0 5 6 -9 25 -24 5 -26 -34 -1 -22 -4 -68 -6 -102 -2 -35
0 -63 5 -63 4 0 8 7 8 15 0 8 4 15 9 15 6 0 8 9 6 20 -2 11 1 20 7 20 7 0 4 6
-5 12 -16 12 -18 40 -4 54 3 4 4 -5 1 -20 -2 -14 0 -26 5 -26 6 0 8 9 6 20 -2
11 0 20 4 20 5 0 8 25 8 55 0 63 16 84 66 85 25 1 50 28 42 47 -5 10 -9 23
-10 28 0 6 -7 9 -14 7 -7 -1 -10 2 -7 7 7 11 35 7 65 -8 28 -16 33 -14 19 8
-7 11 -16 17 -20 15 -5 -3 -7 0 -6 8 2 7 -4 12 -12 10 -8 -2 -11 0 -7 4 10 10
37 14 34 6 -4 -13 30 -52 39 -44 4 4 3 0 -4 -9 -13 -17 -66 -24 -56 -8 3 5 1
9 -5 9 -18 0 -23 -20 -7 -26 9 -3 13 -10 10 -15 -3 -6 0 -17 8 -26 11 -15 11
-16 -7 -9 -15 5 -17 4 -8 -5 18 -18 37 -1 21 19 -11 13 -10 15 5 9 19 -7 24 8
5 17 -7 3 -1 3 14 0 20 -4 30 -2 34 9 3 9 14 14 24 12 10 -2 21 3 24 12 5 11
2 14 -11 9 -15 -6 -16 -5 -5 5 10 11 16 10 30 -5 9 -11 11 -16 4 -12 -8 5 -11
2 -10 -6 2 -7 -5 -13 -14 -13 -10 0 -23 -7 -30 -15 -11 -12 -11 -12 3 -2 9 6
19 9 22 5 4 -3 18 4 31 16 15 14 26 19 31 12 3 -6 11 -11 18 -11 6 0 2 6 -9
14 -18 14 -18 15 4 13 12 -1 22 -5 22 -10 0 -4 5 -5 10 -2 6 3 10 11 10 16 0
6 -4 7 -10 4 -5 -3 -10 -2 -10 4 0 5 -3 18 -7 28 -7 17 -6 17 11 0 20 -20 41
-10 41 20 0 9 7 18 15 20 13 4 13 3 0 -6 -8 -5 -11 -13 -7 -17 9 -9 38 16 31
27 -3 5 0 17 6 26 9 16 10 15 5 -4 -5 -18 -3 -22 9 -17 9 3 13 11 9 17 -3 6
-1 7 6 3 15 -10 -39 -88 -56 -81 -7 2 -15 -1 -19 -7 -4 -7 -3 -8 4 -4 7 4 12
1 12 -8 0 -9 -6 -16 -12 -16 -10 0 -10 -2 0 -8 9 -7 10 -15 3 -35 -6 -15 -7
-27 -2 -27 5 0 11 -13 13 -30 3 -20 0 -30 -9 -30 -7 0 -13 -5 -13 -11 0 -5 4
-8 9 -4 6 3 8 -4 6 -15 -2 -13 1 -20 11 -20 10 0 6 -9 -13 -28 -28 -29 -46
-35 -24 -8 19 23 21 54 4 60 -12 5 -14 1 -9 -19 4 -17 2 -27 -7 -31 -8 -3 -13
-16 -11 -30 2 -19 -1 -23 -10 -15 -17 14 -29 1 -14 -16 8 -11 7 -12 -6 -7 -30
11 -17 40 16 35 4 0 6 8 5 19 -2 28 -8 25 -40 -20 -16 -23 -23 -41 -17 -45 5
-3 14 -4 18 -1 4 2 14 0 22 -5 10 -6 3 -8 -22 -4 l-38 4 17 -27 c17 -26 17
-26 0 -13 -15 12 -19 10 -33 -20 -10 -23 -13 -26 -10 -10 3 16 2 21 -5 14 -16
-16 -6 -48 13 -45 9 1 19 -2 23 -8 4 -6 -1 -7 -12 -3 -15 6 -16 4 -6 -9 7 -8
10 -18 6 -21 -3 -4 -1 -7 5 -7 7 0 12 4 12 9 0 5 11 12 24 15 14 3 32 13 41
22 12 13 18 14 31 4 12 -11 13 -10 8 6 -4 10 -4 16 1 12 4 -4 19 2 34 13 l26
21 5 -39 c4 -23 1 -44 -7 -54 -9 -11 -10 -18 -2 -26 9 -9 7 -16 -5 -28 -20
-21 -22 -42 -1 -25 24 20 17 0 -7 -22 -15 -13 -18 -18 -7 -15 9 3 21 1 27 -5
6 -6 12 -6 16 1 4 6 2 11 -4 11 -6 0 -8 5 -5 11 5 6 12 4 20 -8 7 -10 10 -22
7 -28 -4 -5 -7 -34 -7 -62 0 -45 -3 -52 -17 -47 -9 2 -19 0 -23 -5 -4 -7 1 -8
11 -4 13 5 15 3 9 -7 -6 -9 -4 -11 6 -5 8 4 3 -4 -11 -17 -14 -14 -29 -23 -34
-20 -5 3 -6 0 -3 -5 4 -6 -2 -22 -13 -36 -11 -14 -20 -30 -20 -36 0 -6 -4 -11
-10 -11 -13 0 -13 6 0 30 8 16 8 18 -4 14 -9 -3 -15 -9 -14 -12 0 -4 -1 -10
-2 -14 -1 -5 -3 -13 -4 -20 0 -6 -6 -13 -13 -15 -7 -3 -10 4 -6 19 5 22 5 22
-9 4 -14 -18 -16 -18 -25 -2 -9 16 -11 17 -16 2 -4 -9 -17 -21 -29 -26 -18 -7
-19 -9 -5 -9 10 -1 15 -6 12 -11 -4 -6 -12 -7 -18 -3 -7 4 -6 0 2 -10 14 -18
26 -23 16 -8 -3 5 -1 12 4 15 15 10 21 -23 6 -38 -12 -12 -12 -16 4 -30 17
-16 20 -14 55 24 20 22 41 38 46 35 5 -3 11 -1 15 5 4 6 11 8 16 4 5 -3 9 -2
8 3 -4 21 2 34 13 27 7 -4 8 -3 4 4 -4 7 -2 12 4 12 7 0 10 6 7 13 -3 7 4 19
14 26 11 6 17 16 14 21 -3 6 -2 10 4 10 5 0 8 9 6 19 -3 14 1 18 11 14 8 -3
14 0 14 6 0 6 -6 11 -12 11 -8 0 -6 4 3 10 9 5 20 22 24 37 13 53 47 74 40 26
-2 -16 -2 -22 1 -15 3 6 11 9 17 6 9 -5 9 -3 0 6 -9 10 -8 16 6 29 9 9 11 12
4 8 -6 -5 -17 -6 -23 -2 -6 4 -18 1 -27 -7 -14 -11 -16 -11 -11 3 4 9 1 22 -5
29 -9 10 -9 11 1 6 14 -8 17 10 2 19 -5 3 -10 19 -10 36 0 16 -4 29 -9 29 -19
0 -4 37 28 68 31 29 36 31 44 16 6 -11 6 -19 -2 -23 -6 -4 -8 -18 -5 -31 3
-14 6 -30 6 -37 1 -7 7 -14 14 -17 14 -6 8 27 -13 67 -2 4 1 7 6 7 6 0 11 -8
11 -18 0 -26 11 -34 27 -21 9 9 13 8 13 0 0 -6 -5 -11 -10 -11 -6 0 -9 -3 -9
-7 4 -22 -3 -32 -21 -30 -11 1 -21 5 -21 9 -1 4 -2 12 -3 17 0 5 -5 13 -10 18
-5 4 -6 3 -3 -3 4 -6 -2 -19 -13 -29 -11 -10 -20 -23 -20 -29 0 -6 5 -4 11 4
9 13 10 13 6 -2 -5 -12 -1 -16 14 -13 16 3 19 0 14 -15 -7 -23 13 -28 21 -5 8
20 21 19 28 -3 4 -14 5 -14 4 3 -1 46 2 54 18 48 11 -4 12 -9 5 -16 -6 -6 -11
-15 -11 -20 0 -17 44 46 45 64 1 15 -1 16 -12 7 -10 -8 -11 -13 -2 -18 6 -4 7
-10 2 -13 -5 -3 -14 -2 -21 2 -9 5 -7 12 6 27 10 11 17 25 16 32 -1 7 0 8 3 2
2 -5 9 -10 14 -10 6 0 8 4 5 9 -9 14 22 34 40 27 12 -5 15 -2 10 9 -4 10 -2
14 6 9 7 -5 9 1 6 19 -3 15 -1 24 3 21 5 -3 9 0 9 6 0 6 5 8 10 5 6 -3 10 -1
10 6 0 7 3 10 6 6 4 -3 -4 -22 -16 -41 -12 -20 -17 -36 -11 -36 14 0 -31 -69
-46 -70 -18 0 -16 15 2 30 19 16 19 30 0 30 -8 0 -14 -3 -13 -7 1 -5 -3 -18
-10 -30 -8 -15 -8 -23 -1 -25 6 -2 -3 -21 -20 -42 -17 -21 -28 -43 -24 -49 4
-6 1 -7 -7 -2 -8 5 -11 3 -8 -6 3 -8 14 -13 24 -11 16 2 16 1 4 -7 -10 -7 -20
-5 -33 7 -15 13 -18 14 -15 2 2 -8 8 -18 13 -22 6 -4 -1 -8 -15 -8 -19 0 -22
-2 -10 -9 8 -6 18 -7 22 -5 5 3 7 0 6 -7 -4 -18 19 -22 26 -4 4 11 2 14 -7 9
-6 -4 -1 5 13 19 14 13 30 24 35 23 6 0 9 5 7 12 -1 6 3 12 8 12 6 0 3 12 -6
28 -9 15 -10 20 -2 10 13 -15 16 -14 33 12 11 16 27 31 37 33 22 6 24 -11 3
-19 -8 -4 -15 -15 -15 -25 0 -10 -4 -19 -10 -19 -5 0 -10 -10 -10 -22 0 -51
-4 -68 -14 -58 -6 6 -20 -5 -38 -30 -18 -24 -34 -37 -43 -33 -8 3 -13 9 -10
13 3 4 -2 13 -10 20 -23 19 -19 -6 5 -30 16 -16 18 -25 10 -40 -5 -10 -10 -25
-9 -32 0 -7 4 -4 9 7 6 13 9 15 9 5 1 -22 -46 -63 -64 -56 -14 5 -14 8 1 31 9
14 12 25 6 25 -6 0 -13 -9 -17 -19 -4 -13 -13 -18 -30 -16 -13 1 -22 -2 -19
-6 3 -5 -1 -9 -8 -9 -10 0 -10 -2 0 -9 8 -4 14 -12 15 -17 1 -5 10 -8 21 -6
16 2 17 0 5 -15 -11 -15 -11 -16 1 -5 22 19 35 14 16 -7 -10 -11 -16 -26 -13
-33 4 -8 6 -7 6 5 1 20 5 21 34 6 12 -7 19 -8 14 -4 -4 5 3 19 15 32 21 22 21
24 3 37 -14 10 -15 15 -5 21 9 5 11 4 6 -3 -7 -11 10 -16 39 -13 6 0 12 -11
13 -26 1 -15 7 -30 13 -34 6 -3 10 -9 10 -13 -3 -18 12 -55 21 -50 5 3 4 11
-3 20 -9 11 -9 17 1 29 11 13 7 19 -11 17 -3 -1 -11 10 -18 24 -9 20 -9 25 1
21 7 -2 12 -10 10 -16 -1 -6 2 -11 8 -11 17 0 11 18 -10 33 -11 8 -17 17 -12
22 4 5 1 5 -5 1 -19 -11 -16 5 11 48 13 22 22 46 19 53 -3 7 0 13 6 13 6 0 11
5 11 10 0 6 -5 9 -11 8 -6 -2 -14 4 -16 12 -4 12 -3 12 5 2 12 -18 13 -18 40
-3 13 7 20 17 16 23 -5 7 -2 9 9 5 10 -4 14 -2 11 7 -3 7 8 37 23 67 23 46 27
67 29 151 2 54 6 102 9 108 4 6 9 26 12 43 6 40 22 51 44 31 11 -10 19 -12 23
-5 5 7 12 7 25 -1 20 -12 24 -39 5 -31 -8 3 -13 8 -12 11 2 20 -4 23 -19 11
-9 -8 -19 -13 -22 -11 -3 1 -6 -2 -6 -8 0 -5 -9 -15 -19 -23 -15 -11 -16 -16
-6 -22 9 -6 11 -4 5 5 -5 9 -4 11 4 6 9 -6 8 -14 -4 -32 -9 -14 -13 -29 -10
-35 4 -5 1 -17 -6 -25 -7 -8 -8 -14 -3 -13 21 4 28 -2 14 -11 -11 -7 -11 -10
-2 -10 7 0 10 -5 7 -10 -4 -6 -10 -8 -14 -6 -4 3 -7 -6 -6 -20 0 -14 7 -29 15
-34 13 -8 13 -10 -1 -10 -20 0 -27 -16 -22 -50 9 -59 8 -76 -6 -86 -13 -10
-13 -14 -1 -30 14 -16 13 -17 -4 -10 -20 7 -20 7 0 -15 19 -22 19 -22 -1 -15
-16 6 -17 5 -8 -5 10 -10 15 -9 28 1 8 7 14 18 13 24 -1 6 4 22 11 35 10 18
10 22 0 16 -7 -5 -10 -4 -5 3 3 6 2 13 -3 17 -5 3 2 17 16 31 14 14 28 22 32
19 3 -4 -5 -15 -18 -26 -13 -11 -21 -23 -17 -27 4 -4 12 1 17 11 6 9 14 15 20
12 14 -9 11 -27 -3 -19 -7 4 -10 4 -6 -1 4 -4 0 -14 -8 -22 -8 -9 -12 -18 -8
-22 4 -3 9 0 11 7 3 7 16 17 29 22 13 5 24 15 24 22 0 9 -3 9 -11 -2 -9 -13
-10 -13 -6 0 2 8 10 14 16 12 6 -1 11 3 11 9 0 6 -6 9 -14 6 -14 -5 -15 31 -1
52 3 6 2 11 -4 11 -5 0 -12 -8 -16 -19 -4 -12 -13 -17 -30 -15 -15 1 -29 -4
-35 -14 -9 -16 -9 -16 -10 0 0 9 5 20 10 23 8 5 7 11 -1 21 -9 10 -9 14 0 14
6 0 14 -7 17 -15 7 -18 35 -16 50 5 10 11 15 12 27 2 12 -10 17 -10 23 -1 5 8
3 9 -6 4 -9 -5 -11 -4 -6 3 11 19 25 14 23 -7 0 -11 -4 -19 -7 -19 -3 0 -11 0
-19 -1 -16 -1 -5 -16 11 -16 6 0 12 -8 14 -18 1 -9 -2 -15 -7 -11 -5 3 -9 1
-9 -5 0 -5 3 -11 8 -14 4 -2 1 -2 -6 0 -9 2 -11 -3 -7 -17 4 -12 -1 -26 -14
-39 -16 -16 -17 -21 -7 -21 8 0 22 10 30 22 9 12 16 17 16 11 0 -7 -4 -14 -10
-18 -5 -3 -7 -13 -4 -23 5 -14 4 -15 -5 -2 -8 11 -11 12 -11 2 0 -7 -4 -11 -9
-8 -4 3 -7 -8 -5 -24 2 -18 -1 -30 -8 -30 -6 0 -8 -3 -5 -6 4 -4 14 -1 24 7 9
8 14 9 10 2 -4 -6 -1 -14 5 -16 7 -3 4 -6 -7 -6 -16 -1 -17 -3 -6 -10 11 -7
15 -31 15 -88 1 -57 6 -85 19 -103 19 -28 22 -50 6 -50 -5 0 -7 5 -3 12 4 6 3
8 -4 5 -6 -5 -8 1 -4 15 5 20 3 21 -10 11 -13 -11 -15 -8 -13 27 1 21 -1 38
-4 36 -3 -2 -5 10 -4 27 1 18 2 32 3 32 1 0 3 8 5 18 2 13 0 15 -9 8 -13 -11
-15 -98 -3 -118 5 -8 3 -13 -5 -13 -10 0 -10 -2 0 -9 8 -4 14 -12 15 -17 1 -5
5 -8 9 -7 4 2 5 -4 2 -11 -3 -9 3 -17 15 -21 12 -3 21 -11 21 -16 0 -6 -5 -7
-12 -3 -6 4 -8 3 -4 -4 3 -6 2 -13 -4 -17 -6 -4 -7 -11 -4 -17 4 -6 0 -15 -7
-20 -11 -7 -9 -8 5 -4 14 5 17 2 12 -11 -4 -9 -2 -19 4 -23 6 -4 13 -19 14
-33 2 -15 -1 -24 -6 -21 -5 3 -7 12 -4 19 2 7 -2 16 -9 19 -11 4 -12 0 -4 -20
5 -14 7 -30 3 -35 -3 -5 1 -9 8 -9 9 0 9 -3 -2 -10 -12 -8 -12 -10 5 -11 11 0
14 -3 8 -6 -17 -6 -17 -33 0 -33 6 0 4 -5 -6 -11 -14 -8 -16 -14 -6 -25 6 -8
8 -14 3 -14 -5 0 -2 -5 7 -10 10 -6 15 -20 13 -37 -1 -14 4 -39 12 -55 8 -15
14 -30 13 -33 -4 -17 14 -95 21 -90 4 3 6 -4 3 -15 -3 -11 0 -20 6 -20 6 0 10
-3 10 -7 -3 -16 14 -73 21 -73 21 0 40 14 40 29 0 9 -11 40 -25 69 -13 29 -24
55 -25 57 0 3 0 6 -1 8 0 1 -2 16 -3 33 -2 17 -13 62 -25 100 -11 38 -23 89
-25 114 -3 25 -9 60 -15 77 -6 20 -6 35 0 38 11 8 25 -26 38 -98 6 -31 19 -76
30 -100 11 -24 22 -55 25 -68 22 -97 105 -287 169 -382 23 -34 51 -78 61 -97
10 -19 27 -44 36 -55 10 -11 30 -40 45 -65 29 -46 178 -214 251 -282 36 -33
61 -54 139 -113 10 -8 23 -15 28 -15 4 0 36 -19 70 -43 127 -87 281 -147 395
-153 34 -2 72 -9 83 -15 15 -7 47 -8 103 -2 44 4 92 7 106 5 64 -6 347 78 334
99 -3 5 -1 9 4 9 5 0 21 11 36 25 15 14 32 25 37 25 6 0 7 4 4 10 -6 10 54 52
65 45 4 -3 15 4 25 15 9 10 23 16 30 14 7 -3 16 -1 20 5 3 6 14 11 23 11 19 1
62 33 62 47 0 12 88 103 131 135 34 25 74 81 149 210 19 31 38 54 43 51 6 -3
7 -1 3 6 -7 11 26 76 42 83 4 2 16 18 26 37 10 19 14 31 7 27 -18 -11 7 45 31
72 19 20 20 22 4 22 -12 0 -16 5 -12 16 3 9 6 18 6 20 0 2 4 4 10 4 5 0 6 -7
3 -17 -4 -10 -2 -14 5 -10 6 4 13 -1 15 -10 4 -17 5 -17 6 0 1 11 6 16 14 12
6 -4 4 0 -5 7 -15 13 -15 15 0 26 14 11 13 12 -13 7 -16 -3 -25 -2 -19 2 6 4
10 16 8 26 -2 18 11 23 20 8 4 -5 0 -12 -6 -14 -8 -4 -7 -6 3 -6 9 -1 19 6 23
14 3 8 1 15 -4 15 -6 0 -10 5 -10 10 0 6 7 10 15 10 9 0 16 10 16 25 2 33 3
38 12 53 5 6 5 12 0 12 -4 0 -2 4 6 9 13 8 13 12 0 27 -13 16 -12 17 5 11 10
-4 25 -2 32 4 18 14 27 -7 20 -44 -3 -15 -1 -27 4 -27 5 0 5 -14 0 -31 -5 -17
-9 -34 -8 -38 0 -3 0 -17 -1 -31 -1 -18 -4 -21 -10 -12 -6 10 -10 9 -14 -7 -3
-12 -1 -21 3 -21 10 0 -2 -44 -25 -93 -9 -19 -17 -51 -18 -70 -1 -19 -4 -33
-6 -31 -7 7 -38 -41 -38 -58 0 -26 14 -22 34 10 10 15 26 33 36 40 10 8 16 19
14 25 -2 7 8 37 23 67 15 30 34 79 41 107 7 29 17 53 22 53 5 0 7 11 5 25 -3
14 -2 43 2 65 4 21 3 43 -2 48 -5 5 -4 20 2 36 11 30 22 81 24 109 0 9 3 17 6
17 3 0 6 10 7 23 1 12 7 47 13 77 6 30 13 100 15 154 3 55 9 113 14 130 6 17
8 48 6 68 -2 21 1 41 7 44 7 4 8 2 4 -4 -4 -7 -2 -12 4 -12 7 0 8 -6 1 -18 -5
-10 -6 -23 -3 -29 6 -10 7 -188 1 -188 -6 0 -15 -101 -22 -242 0 -13 -4 -23
-8 -23 -4 0 -5 -27 -2 -60 4 -36 2 -60 -4 -60 -5 0 -10 -6 -10 -12 -1 -7 -4
-28 -9 -47 -6 -27 -4 -32 6 -26 10 6 11 4 4 -6 -5 -8 -9 -43 -10 -78 -1 -44
-6 -68 -16 -75 -26 -19 -44 -95 -23 -97 6 0 16 -5 23 -11 11 -10 17 1 13 25
-1 4 8 27 19 52 11 24 20 49 20 55 0 6 6 21 14 33 8 12 17 57 21 99 3 43 10
89 15 104 6 14 8 29 5 34 -3 5 2 41 10 81 9 41 15 111 13 159 -5 209 2 501 13
495 6 -4 8 -9 5 -12 -2 -3 2 -24 10 -46 8 -23 17 -55 20 -72 2 -16 8 -55 13
-85 5 -30 7 -58 5 -61 -2 -4 -4 -92 -5 -195 -1 -148 2 -198 14 -229 37 -96 66
-231 61 -280 -2 -27 -6 -97 -9 -155 -2 -58 -12 -138 -23 -178 -10 -39 -15 -72
-12 -72 10 0 -18 -118 -37 -154 -9 -16 -22 -36 -29 -44 -19 -19 -17 -29 8 -43
18 -10 20 -9 15 5 -4 9 -2 15 5 13 34 -7 87 131 93 244 1 20 6 42 10 50 5 7
10 60 11 118 3 108 5 121 25 202 7 26 9 55 4 65 -4 11 -10 27 -12 38 -2 10
-12 45 -23 78 -11 32 -22 76 -26 96 -4 20 -11 43 -17 50 -9 11 -13 230 -5 237
2 1 12 -7 23 -18 11 -11 13 -17 5 -12 -8 4 7 -14 34 -41 26 -27 54 -61 62 -76
8 -16 18 -28 22 -28 4 0 17 -15 29 -33 20 -29 21 -36 10 -80 -7 -27 -15 -46
-18 -43 -6 6 -2 -86 5 -119 8 -37 55 -135 65 -135 26 0 40 13 32 28 -13 26
-49 135 -52 157 -6 49 29 155 52 155 9 0 39 -22 67 -50 47 -46 50 -53 48 -93
-1 -27 -14 -63 -31 -93 -16 -27 -29 -53 -30 -59 -1 -19 -46 -96 -53 -91 -4 2
-18 -15 -31 -40 -13 -24 -27 -41 -31 -39 -14 9 -35 -59 -35 -110 1 -53 48
-170 66 -160 5 4 9 1 9 -5 0 -8 6 -8 20 0 20 11 20 12 -15 75 -40 73 -43 96
-17 133 10 15 27 44 37 65 11 22 30 50 43 64 13 14 35 43 49 64 29 44 31 46
29 23 0 -10 8 -18 20 -20 19 -3 21 1 21 39 -1 54 9 122 21 142 7 14 13 10 37
-22 16 -21 31 -40 35 -43 26 -23 109 -132 122 -159 14 -29 14 -39 1 -87 -12
-48 -12 -56 3 -79 26 -40 55 -52 71 -29 18 25 17 29 -13 43 -24 11 -26 15 -19
49 4 20 7 58 7 84 0 37 3 48 18 53 16 5 38 46 45 80 4 20 -51 102 -108 161
-61 64 -91 110 -81 125 3 6 1 16 -5 22 -6 8 -9 46 -7 88 1 41 -1 81 -5 89 -38
77 -49 104 -49 123 1 22 1 22 18 2 25 -29 128 -116 190 -159 l52 -38 0 66 c0
36 -4 66 -9 66 -5 0 -12 8 -15 18 -4 9 -13 29 -21 43 -8 15 -18 42 -21 60 l-7
34 30 -27 c16 -16 32 -28 36 -28 4 0 7 18 7 40 0 36 -3 41 -40 60 -22 11 -39
24 -38 28 6 26 -29 130 -59 175 -19 28 -37 61 -39 72 -3 17 -1 16 22 -6 22
-22 30 -40 33 -71 1 -11 23 -10 40 1 11 7 11 15 1 47 -13 37 -57 85 -122 129
-30 20 -78 118 -78 157 0 10 -5 18 -11 18 -5 0 -8 4 -5 9 3 5 -1 24 -9 43 -12
30 -12 35 0 35 8 0 12 -4 9 -9 -3 -4 3 -11 13 -15 48 -18 94 -60 136 -126 26
-40 69 -97 96 -127 l50 -55 1 113 c0 78 -4 117 -12 126 -7 6 -38 24 -69 38
-61 29 -109 77 -109 111 0 12 -16 52 -34 89 l-34 67 93 -65 c51 -35 96 -64
100 -64 4 0 20 -9 36 -21 l29 -20 0 29 c0 29 -11 38 -135 115 -11 6 -70 55
-131 108 -60 53 -157 130 -214 170 -105 74 -223 177 -241 211 -6 10 28 -7 78
-41 48 -32 107 -70 131 -85 47 -30 118 -97 172 -165 19 -24 58 -60 85 -81 47
-35 227 -130 246 -130 5 0 9 11 9 24 0 20 -13 30 -77 60 -131 62 -158 83 -272
216 -37 43 -93 88 -175 142 -127 84 -142 95 -113 85 10 -4 17 -1 17 6 0 9 2 9
8 -1 5 -7 22 -15 37 -18 16 -3 34 -9 40 -14 6 -5 23 -11 38 -14 15 -2 31 -8
37 -11 6 -4 19 -1 28 6 9 7 14 9 9 4 -7 -9 106 -46 197 -65 27 -5 63 -18 80
-29 17 -10 57 -32 89 -49 l57 -30 0 31 c-1 29 -6 35 -63 62 -34 17 -64 33 -67
36 -3 4 -23 12 -45 17 -22 6 -85 23 -140 38 -55 15 -106 28 -115 29 -8 1 -22
4 -30 7 -8 3 -42 11 -75 18 -33 6 -68 16 -77 21 -13 6 -18 5 -18 -3 0 -9 -3
-9 -9 1 -5 8 -25 15 -44 15 -19 1 -33 4 -30 8 2 5 -5 8 -17 8 -13 0 -52 31
-103 83 -45 46 -103 98 -129 116 l-48 32 0 115 c0 88 -3 115 -12 112 -8 -3
-13 -26 -14 -64 -1 -32 -6 -75 -12 -96 -5 -20 -7 -40 -3 -45 3 -5 -2 1 -13 12
-10 11 -21 20 -25 20 -3 0 -5 7 -4 15 3 17 12 108 15 158 2 17 6 32 10 32 13
0 1 82 -18 129 -9 23 -25 46 -35 52 -15 8 -20 5 -25 -17 -4 -17 -10 -22 -17
-15 -14 14 -14 186 1 204 6 7 9 16 7 19 -3 3 -1 17 4 31 20 52 21 103 1 119
-32 28 -50 0 -81 -124 -24 -97 -36 -169 -35 -209 1 -33 -8 -35 -74 -15 -41 12
-45 16 -45 44 0 17 -3 34 -7 37 -4 4 -4 14 -1 23 5 11 3 13 -6 7 -10 -6 -11
-3 -3 11 5 11 7 28 4 39 -4 18 -10 78 -11 129 -2 44 -16 0 -17 -50 0 -56 -9
-78 -23 -55 -5 8 -11 9 -15 3 -8 -13 19 -23 42 -15 9 3 14 3 10 -2 -4 -4 -2
-15 4 -24 10 -13 10 -14 -2 -3 -22 19 -30 14 -20 -14 13 -34 13 -39 -5 -24 -8
7 -12 16 -9 21 3 5 0 9 -5 9 -6 0 -10 5 -8 11 1 6 -5 14 -13 16 -9 3 -11 1 -5
-4 6 -4 10 -15 10 -23 0 -8 4 -18 9 -22 6 -4 7 -11 2 -15 -10 -11 -48 36 -39
50 3 6 1 7 -6 3 -6 -4 -14 0 -17 8 -3 9 -11 13 -17 9 -6 -4 -7 -1 -2 8 9 14 9
156 1 223 -5 39 -50 126 -65 126 -5 0 -15 -8 -22 -17 -10 -11 -10 -14 -1 -9 6
4 12 2 12 -3 0 -6 -4 -11 -10 -11 -5 0 -7 -6 -5 -12 3 -7 7 -38 10 -68 3 -30
8 -71 10 -90 l6 -35 -18 25 c-10 13 -26 33 -35 42 -10 10 -16 18 -13 18 3 0 1
9 -5 20 -6 10 -16 17 -24 14 -9 -3 -16 6 -21 28 -4 18 -7 36 -6 41 0 4 -3 7
-8 7 -5 0 -6 10 -3 23 5 21 5 21 -12 4 -10 -9 -22 -14 -28 -11 -7 4 -8 2 -4
-5 4 -6 11 -9 16 -6 5 3 7 -9 6 -27 -3 -37 3 -60 13 -53 4 2 8 -2 8 -9 0 -8
-7 -12 -16 -9 -13 4 -13 2 2 -10 21 -18 22 -28 2 -21 -13 5 -14 2 -6 -17 12
-32 11 -41 -2 -58 -9 -11 -9 -13 -1 -8 7 4 18 -1 25 -10 8 -9 9 -14 2 -10 -7
5 -10 1 -8 -10 2 -10 4 -21 4 -25 1 -4 10 -10 21 -13 11 -3 20 -11 20 -16 0
-6 -6 -7 -12 -3 -9 5 -9 2 1 -9 16 -20 11 -21 -26 -4 -30 13 -63 42 -63 55 0
5 -8 25 -18 45 -15 30 -20 35 -31 25 -11 -10 -10 -8 0 10 10 16 11 25 3 30 -6
4 -18 38 -28 76 l-17 69 71 69 c59 57 70 71 60 83 -14 17 -45 21 -35 5 3 -5
-1 -10 -9 -10 -9 0 -16 -4 -16 -10 0 -5 -10 -10 -22 -11 -13 0 -18 -3 -11 -5
7 -3 0 -16 -20 -34 -21 -18 -34 -24 -39 -17 -9 15 1 29 14 21 7 -4 8 -2 4 5
-4 6 -11 9 -16 6 -5 -3 -10 0 -13 7 -2 7 -3 5 -2 -4 2 -10 -1 -21 -6 -24 -5
-3 -9 0 -9 6 0 6 -5 8 -10 5 -6 -4 -8 -11 -5 -16 3 -5 -1 -6 -9 -3 -10 4 -16
1 -16 -9 0 -9 -4 -19 -10 -22 -12 -7 -2 23 14 44 13 17 17 43 5 35 -5 -3 -7
-9 -5 -13 3 -4 -1 -8 -9 -8 -8 0 -11 5 -7 11 12 18 8 50 -8 63 -19 15 -130 17
-130 2 0 -5 5 -7 12 -3 6 4 8 3 5 -4 -8 -12 -32 -10 -44 3 -4 4 -2 5 5 1 6 -4
12 -2 12 3 0 6 -7 11 -15 11 -8 0 -15 -5 -15 -11 0 -5 -4 -8 -9 -4 -5 3 -13 1
-16 -5 -4 -6 -3 -10 2 -9 19 3 33 -2 33 -12 0 -6 -7 -9 -15 -5 -13 4 -14 2 -5
-14 9 -16 8 -20 -5 -20 -9 0 -13 -4 -10 -10 3 -6 -1 -7 -9 -4 -9 3 -16 2 -16
-3 0 -5 -16 -26 -36 -47 -20 -21 -37 -45 -38 -54 -2 -9 -11 -21 -22 -26 -10
-6 -22 -15 -25 -20 -4 -4 -15 -3 -25 4 -17 10 -17 11 -1 6 20 -6 20 -7 -27 62
-16 23 -34 42 -40 42 -6 0 -4 5 4 10 12 8 12 10 -5 10 -15 0 -17 2 -6 9 8 5
11 16 8 25 -4 9 -2 16 4 16 6 0 7 5 3 12 -5 7 -2 9 8 5 11 -4 16 1 16 19 0 19
-6 24 -24 24 -23 0 -28 -8 -25 -40 2 -12 0 -12 -7 -2 -5 8 -12 13 -16 13 -26
-4 -35 1 -30 14 4 8 1 15 -5 15 -6 0 -11 -4 -11 -10 0 -5 -5 -10 -11 -10 -5 0
-7 5 -4 10 3 6 1 10 -4 10 -6 0 -11 -6 -11 -12 0 -8 -3 -9 -8 -3 -11 15 -35
18 -26 3 17 -27 39 -48 51 -48 16 0 17 -16 1 -26 -7 -5 -8 -3 -3 6 5 8 3 11
-6 8 -8 -3 -13 -10 -12 -16 1 -5 -5 -9 -15 -8 -9 2 -21 -3 -27 -11 -12 -15
-44 -18 -98 -8 -32 7 -37 5 -31 -9 3 -9 11 -13 17 -9 6 4 7 1 2 -6 -9 -16 -24
-2 -30 28 -3 18 -1 22 13 17 14 -5 13 -3 -2 9 -11 8 -14 15 -8 15 7 0 12 5 12
12 0 9 -3 9 -11 1 -11 -11 -49 -6 -49 6 0 4 6 13 13 21 10 12 9 12 -6 1 -15
-12 -17 -12 -11 3 7 17 5 18 -40 21 -27 2 -28 1 -11 -11z m720 -41 c-1 -10 1
-23 6 -29 5 -6 4 -11 -5 -11 -10 0 -15 35 -7 55 4 10 9 -1 6 -15z m-675 -3 c0
-5 -5 -10 -11 -10 -5 0 -7 5 -4 10 3 6 8 10 11 10 2 0 4 -4 4 -10z m323 -15
c-7 -19 -19 -19 -26 -1 -4 11 -1 13 10 9 12 -5 14 -3 8 7 -5 8 -4 11 3 6 6 -4
9 -13 5 -21z m323 10 c-1 -8 -5 -17 -8 -21 -5 -4 -4 16 1 34 3 9 9 -1 7 -13z
m-906 -28 c11 -5 9 -6 -4 -4 -11 1 -21 9 -23 17 -3 10 -2 11 4 4 4 -6 15 -14
23 -17z m47 10 c0 -8 -6 -14 -13 -14 -7 0 -10 6 -7 14 3 7 8 13 12 13 4 0 8
-6 8 -13z m57 1 c-3 -4 -9 -8 -15 -8 -5 0 -9 4 -9 8 0 5 7 9 15 9 8 0 12 -4 9
-9z m187 -15 c-12 -20 -14 -14 -5 12 4 9 9 14 11 11 3 -2 0 -13 -6 -23z m274
-43 c3 -6 -1 -7 -9 -4 -18 7 -21 14 -7 14 6 0 13 -4 16 -10z m-768 -25 c0 -8
-4 -12 -9 -9 -4 3 -8 9 -8 15 0 5 4 9 8 9 5 0 9 -7 9 -15z m1247 -2 c3 -8 11
-11 17 -7 8 4 9 3 5 -4 -5 -9 -14 -7 -32 4 -28 19 -29 21 -9 21 8 0 17 -7 19
-14z m-154 -35 c0 -3 -12 -20 -26 -37 -14 -17 -23 -31 -19 -31 3 0 3 -5 -1
-12 -5 -8 -10 -6 -15 8 -7 17 -8 17 -8 2 -1 -19 -31 -26 -31 -8 0 6 5 10 10
10 6 0 10 5 10 11 0 8 -4 8 -15 -1 -11 -9 -19 -9 -35 3 -17 12 -19 17 -8 23
21 14 36 13 49 -2 6 -8 19 -14 28 -14 20 0 50 49 44 70 -4 13 -3 13 6 0 6 -8
11 -18 11 -22z m-285 -6 c-3 -3 -11 0 -18 7 -9 10 -8 11 6 5 10 -3 15 -9 12
-12z m-75 4 c0 -3 -4 -8 -10 -11 -5 -3 -10 -1 -10 4 0 6 5 11 10 11 6 0 10 -2
10 -4z m-670 -25 c7 -15 7 -22 -2 -27 -7 -4 -10 -4 -6 1 4 4 3 16 -3 26 -5 11
-7 19 -5 19 3 0 10 -9 16 -19z m1265 -25 c17 -35 14 -57 -8 -55 -9 0 -9 2 1 6
6 2 12 9 12 14 0 6 -4 8 -8 5 -5 -3 -9 0 -10 7 0 7 -4 22 -7 35 -11 34 2 26
20 -12z m180 25 c3 -5 2 -12 -3 -15 -5 -3 -9 1 -9 9 0 17 3 19 12 6z m-710
-31 c-3 -5 -2 -10 3 -10 6 0 12 -7 15 -14 4 -10 1 -13 -8 -10 -15 6 -15 -20 0
-33 4 -4 5 -2 1 5 -4 6 -3 12 2 12 5 0 12 -8 15 -19 3 -14 0 -17 -14 -14 -11
3 -19 1 -19 -4 0 -5 -7 -10 -16 -10 -14 0 -14 2 2 14 10 7 13 13 8 13 -6 0 -9
13 -8 29 2 29 11 51 20 51 3 0 2 -4 -1 -10z m499 2 c2 -4 -4 -8 -14 -8 -10 0
-16 4 -14 8 3 4 9 8 14 8 5 0 11 -4 14 -8z m-182 -36 c3 -13 -1 -31 -8 -40
-14 -20 -78 -32 -71 -13 2 7 12 11 22 9 11 -2 14 1 9 9 -4 8 -3 10 4 5 7 -4
12 -1 12 9 0 12 18 42 26 45 1 0 4 -11 6 -24z m438 -6 c0 -5 -2 -10 -4 -10 -3
0 -8 5 -11 10 -3 6 -1 10 4 10 6 0 11 -4 11 -10z m-1327 -122 c15 -15 30 -28
33 -28 4 0 12 -8 19 -17 11 -15 9 -22 -12 -47 -25 -30 -93 -62 -93 -45 0 11
-23 7 -32 -6 -5 -6 -8 -5 -8 3 0 9 -5 10 -19 2 -13 -7 -22 -7 -26 0 -3 5 -12
10 -18 10 -7 0 -6 -4 3 -10 8 -5 11 -10 5 -10 -28 0 -34 16 -16 43 9 15 21 24
25 20 4 -4 4 1 0 11 -6 15 -4 17 6 11 9 -5 11 -4 6 3 -4 6 0 39 9 73 9 34 14
68 10 77 -5 15 55 -35 108 -90z m1298 75 c13 -16 12 -17 -3 -4 -10 7 -18 15
-18 17 0 8 8 3 21 -13z m65 -12 c0 -11 -5 -17 -13 -14 -10 4 -11 9 -2 19 15
18 15 18 15 -5z m-911 -3 c-25 -14 -44 -39 -41 -53 2 -5 1 -7 -1 -2 -3 4 -12
7 -21 7 -15 1 -14 3 2 15 11 8 16 15 10 15 -15 1 40 29 56 29 10 0 9 -3 -5
-11z m275 -9 c0 -5 -4 -8 -9 -5 -17 11 -19 -19 -2 -39 14 -17 14 -18 0 -7 -9
6 -20 8 -24 4 -5 -4 -5 -2 -1 5 3 6 2 14 -4 18 -6 4 -5 11 3 20 14 17 37 19
37 4z m385 -13 c8 4 12 11 8 18 -4 7 -1 7 9 -1 8 -7 19 -9 24 -5 4 4 3 -1 -5
-10 -7 -10 -19 -14 -29 -11 -9 3 -14 3 -10 -2 4 -4 2 -17 -4 -28 -9 -17 -8
-19 8 -13 18 6 18 5 2 -7 -14 -11 -15 -16 -5 -27 10 -12 9 -12 -5 -2 -9 7 -15
21 -13 30 4 25 -6 36 -17 21 -8 -11 -9 -10 -5 3 3 9 1 19 -6 22 -9 3 -9 5 0 5
6 1 15 -3 18 -9 3 -5 11 -10 17 -10 6 0 4 8 -5 18 -10 10 -17 23 -17 28 0 5 5
1 11 -8 5 -9 16 -15 24 -12z m264 1 c6 10 11 13 11 8 0 -6 -5 -16 -12 -23 -9
-9 -9 -12 2 -12 23 0 2 -13 -26 -16 -25 -3 -25 -2 -8 12 18 15 18 15 -1 9 -11
-3 -16 -3 -12 1 4 4 1 14 -6 22 -9 12 -5 11 15 -2 25 -16 27 -16 37 1z m-1875
-12 c-7 -16 -24 -21 -24 -6 0 8 7 13 27 20 1 1 0 -6 -3 -14z m1803 9 c-3 -3
-12 -4 -19 -1 -8 3 -5 6 6 6 11 1 17 -2 13 -5z m-120 -21 c0 -9 -4 -10 -14 -2
-7 6 -13 12 -13 14 0 1 6 2 13 2 8 0 14 -6 14 -14z m-684 -13 c-5 -19 -33 -49
-33 -36 0 7 31 56 35 56 2 0 1 -9 -2 -20z m-370 -20 c9 -11 13 -20 9 -20 -4 0
-15 9 -25 20 -9 11 -13 20 -9 20 4 0 15 -9 25 -20z m500 -4 c-10 -13 -20 -22
-22 -20 -4 4 29 44 36 44 2 0 -4 -11 -14 -24z m687 4 c8 -5 11 -10 5 -10 -5 0
-17 5 -25 10 -8 5 -10 10 -5 10 6 0 17 -5 25 -10z m100 -5 c-5 -7 -7 -15 -3
-19 4 -4 -1 -4 -11 0 -13 5 -17 4 -12 -4 3 -6 1 -14 -5 -18 -8 -4 -9 -3 -5 4
4 7 1 12 -6 12 -9 0 -9 3 2 10 13 9 13 10 0 11 -8 1 -19 1 -23 0 -5 -1 -6 2
-3 7 3 5 21 9 40 9 26 0 33 -3 26 -12z m-244 -103 c3 -30 2 -33 -7 -19 -5 9
-7 22 -4 27 3 6 1 10 -6 10 -7 0 -10 3 -6 6 3 4 0 19 -8 35 -22 42 -18 49 7
11 11 -19 23 -50 24 -70z m-1569 63 c0 -8 -4 -12 -9 -9 -5 3 -6 10 -3 15 9 13
12 11 12 -6z m68 -34 c-9 -8 -36 -10 -30 -2 2 4 11 8 20 8 8 0 13 -3 10 -6z
m1757 -23 c-5 -31 -5 -32 -14 -8 -7 20 0 36 18 40 0 0 -2 -14 -4 -32z m-149 1
c25 -14 81 -59 73 -59 -4 0 1 -16 9 -36 13 -33 13 -36 -1 -30 -9 3 -31 6 -49
6 -29 0 -35 4 -45 35 -7 20 -9 43 -6 51 3 9 1 12 -4 9 -6 -3 -10 -4 -10 -1 0
2 -3 11 -6 20 -7 19 9 21 39 5z m-1645 -21 c9 -9 12 -9 12 3 1 10 3 9 11 -4 6
-9 14 -15 19 -12 4 3 6 -5 2 -17 -4 -16 -7 -18 -11 -7 -7 16 -31 24 -31 9 0
-5 -6 -10 -12 -10 -7 0 -13 11 -13 25 0 28 5 31 23 13z m847 -10 c3 -3 -5 -4
-17 -4 -13 1 -31 -1 -40 -6 -10 -5 -20 -4 -24 4 -4 6 -3 8 2 5 6 -3 16 -2 22
2 14 8 48 8 57 -1z m-675 -2 c0 -3 -4 -8 -10 -11 -5 -3 -10 -1 -10 4 0 6 5 11
10 11 6 0 10 -2 10 -4z m1805 -14 c2 -7 0 -10 -5 -7 -14 8 -13 -8 1 -22 9 -9
7 -11 -5 -9 -9 1 -22 8 -29 16 -9 10 -9 11 1 6 6 -4 12 -2 12 3 0 6 -7 11 -16
11 -8 0 -13 4 -9 9 8 14 44 9 50 -7z m-82 -80 c-7 -2 -20 4 -29 12 -8 9 -11
16 -5 16 6 0 11 8 11 18 0 12 6 8 18 -13 15 -23 16 -31 5 -33z m-2063 -3 c0
-14 -17 -10 -23 5 -4 10 -1 13 9 9 7 -3 14 -9 14 -14z m83 6 c-3 -9 -8 -14
-10 -11 -3 3 -2 9 2 15 9 16 15 13 8 -4z m-117 -7 c8 -12 -24 -40 -37 -32 -9
5 11 44 23 44 4 0 10 -5 14 -12z m-253 -99 c-5 -5 -8 4 -7 19 4 51 7 57 11 23
3 -18 1 -37 -4 -42z m2547 39 c0 -6 7 -8 15 -4 8 3 15 1 15 -3 0 -17 -27 -19
-58 -4 -40 19 -41 31 -2 25 17 -2 30 -9 30 -14z m-135 -8 c20 -23 30 -74 12
-63 -21 13 -37 12 -37 -3 0 -9 -5 -12 -11 -9 -6 4 -8 13 -5 20 3 8 1 28 -4 44
-7 26 -6 31 9 31 10 0 26 -9 36 -20z m-243 -7 c-6 -2 -10 -8 -8 -12 3 -4 -1
-8 -9 -8 -8 0 -15 4 -15 8 0 8 19 17 35 17 6 0 4 -2 -3 -5z m553 -57 c3 -27 1
-46 -5 -46 -5 0 -10 -13 -10 -30 0 -24 -4 -30 -21 -30 -11 0 -17 -4 -14 -10 3
-5 1 -10 -4 -10 -6 0 -10 -5 -8 -11 1 -6 -6 -13 -16 -14 -13 -3 -15 0 -9 8 6
7 10 30 9 52 -1 30 8 54 33 92 19 29 36 51 37 49 2 -2 6 -24 8 -50z m-502 19
c4 -8 3 -16 -1 -19 -4 -3 -9 4 -9 15 -2 23 3 25 10 4z m362 -32 c-9 -38 -13
-40 -33 -19 -16 16 -16 18 2 32 29 21 39 17 31 -13z m-165 7 c0 -5 -5 -10 -11
-10 -5 0 -7 5 -4 10 3 6 8 10 11 10 2 0 4 -4 4 -10z m-2561 -13 c-2 -1 -14
-11 -26 -21 -13 -11 -23 -16 -23 -13 0 10 31 37 42 37 6 0 9 -1 7 -3z m82 -30
c-10 -9 -11 -8 -5 6 3 10 9 15 12 12 3 -3 0 -11 -7 -18z m2530 0 c-10 -9 -11
-8 -5 6 3 10 9 15 12 12 3 -3 0 -11 -7 -18z m-121 -3 c0 -8 -19 -13 -24 -6 -3
5 1 9 9 9 8 0 15 -2 15 -3z m-2625 -34 c10 -11 16 -20 13 -20 -3 0 -13 9 -23
20 -10 11 -16 20 -13 20 3 0 13 -9 23 -20z m-115 -4 c0 -3 -4 -8 -10 -11 -5
-3 -10 -1 -10 4 0 6 5 11 10 11 6 0 10 -2 10 -4z m55 -5 c3 -5 2 -12 -3 -15
-5 -3 -9 1 -9 9 0 17 3 19 12 6z m-170 -21 c3 -6 -1 -7 -9 -4 -18 7 -21 14 -7
14 6 0 13 -4 16 -10z m165 -20 c-8 -5 -19 -10 -25 -10 -5 0 -3 5 5 10 8 5 20
10 25 10 6 0 3 -5 -5 -10z m-176 -16 c3 -8 2 -12 -4 -9 -6 3 -10 10 -10 16 0
14 7 11 14 -7z m47 -1 c13 -16 12 -17 -3 -4 -10 7 -18 15 -18 17 0 8 8 3 21
-13z m340 4 c-14 -14 -69 -19 -76 -6 -5 8 -1 9 13 5 11 -4 23 -3 25 1 3 5 15
9 26 9 11 0 17 -4 12 -9z m-261 -41 c0 -3 -4 -8 -10 -11 -5 -3 -10 -1 -10 4 0
6 5 11 10 11 6 0 10 -2 10 -4z m81 -25 c-8 -5 -20 -7 -28 -4 -8 3 -12 0 -10
-8 2 -8 2 -11 0 -6 -3 4 -11 7 -19 7 -9 0 -12 -5 -8 -12 4 -7 3 -8 -5 -4 -18
11 -4 25 34 32 22 4 32 10 28 18 -3 6 0 5 8 -2 12 -11 12 -14 0 -21z m39 20
c0 -6 -4 -13 -10 -16 -5 -3 -10 1 -10 9 0 9 5 16 10 16 6 0 10 -4 10 -9z m213
-5 c4 -11 1 -13 -10 -9 -11 4 -14 2 -9 -5 5 -8 2 -10 -9 -6 -14 6 -14 8 2 20
10 7 19 14 19 14 1 0 4 -7 7 -14z m-396 -11 c0 -8 -4 -12 -9 -9 -5 3 -6 10 -3
15 9 13 12 11 12 -6z m436 -30 c-3 -9 -8 -14 -10 -11 -3 3 -2 9 2 15 9 16 15
13 8 -4z m-95 -11 c-2 -9 5 -21 15 -28 15 -9 21 -7 33 8 8 11 14 15 14 9 0 -7
-5 -15 -11 -19 -8 -4 -8 -8 0 -13 6 -4 2 -12 -12 -20 -20 -13 -21 -13 -9 1 11
14 9 16 -12 14 -17 -1 -21 -4 -15 -13 7 -7 6 -13 0 -17 -5 -4 -12 -2 -16 3 -3
6 -12 8 -21 4 -10 -3 -11 -9 -5 -17 11 -13 9 -42 -4 -53 -4 -4 -5 -3 -2 3 4 7
0 14 -8 18 -21 8 -19 29 3 22 9 -3 2 8 -17 25 -26 24 -29 30 -12 24 12 -3 21
-3 20 2 -3 19 2 34 10 29 5 -3 12 1 15 10 3 8 10 12 16 9 5 -3 10 -1 10 4 0 6
2 11 5 11 3 0 5 -7 3 -16z m-382 -20 c1 -9 0 -13 -4 -10 -3 4 -7 14 -8 22 -1
9 0 13 4 10 3 -4 7 -14 8 -22z m108 18 c3 -5 -1 -9 -9 -9 -8 0 -12 4 -9 9 3 4
7 8 9 8 2 0 6 -4 9 -8z m316 -2 c0 -5 -8 -10 -17 -10 -15 0 -16 2 -3 10 19 12
20 12 20 0z m-626 -10 c-15 -15 -54 -21 -54 -8 0 5 6 8 13 5 8 -3 20 -1 28 4
19 12 25 11 13 -1z m241 1 c3 -5 2 -12 -3 -15 -5 -3 -9 1 -9 9 0 17 3 19 12 6z
m-161 -13 c-3 -4 -11 -5 -19 -1 -21 7 -19 12 4 10 11 0 18 -5 15 -9z m237 -21
c-10 -9 -11 -8 -5 6 3 10 9 15 12 12 3 -3 0 -11 -7 -18z m-530 -23 c-9 -12
-18 -20 -20 -18 -2 2 1 10 8 18 9 11 9 15 -1 19 -7 3 -3 4 8 4 21 -1 21 -2 5
-23z m145 11 c-11 -8 -25 -15 -30 -15 -6 1 0 7 14 15 32 19 40 18 16 0z m510
0 c-7 -18 5 -20 23 -2 11 9 13 9 7 0 -5 -9 0 -12 15 -10 24 2 33 -11 20 -32
-5 -8 -14 -10 -22 -6 -10 6 -8 10 7 17 18 8 18 8 -1 5 -11 -2 -19 -9 -17 -15
1 -7 -2 -13 -8 -13 -5 -1 -15 -2 -20 -3 -6 0 -14 -6 -18 -12 -8 -13 -74 -49
-84 -46 -4 1 -5 -4 -3 -11 2 -6 -23 -29 -55 -51 -33 -21 -60 -43 -60 -48 0 -6
-7 -5 -15 2 -13 11 -14 10 -9 -4 9 -23 -18 -20 -39 4 -19 22 -14 45 8 37 6 -3
25 6 40 19 15 13 34 24 42 24 8 0 11 5 8 10 -3 6 1 10 10 10 10 0 13 5 9 13
-4 6 3 3 17 -8 13 -11 18 -13 12 -5 -16 18 -17 34 -1 24 7 -4 8 -3 4 5 -4 6
-1 14 8 17 8 3 13 11 10 18 -7 17 47 54 74 49 16 -2 21 1 16 9 -4 7 -3 8 4 4
7 -4 12 -2 12 3 0 6 3 11 6 11 3 0 4 -7 0 -15z m-485 -18 c-10 -9 -11 -8 -5 6
3 10 9 15 12 12 3 -3 0 -11 -7 -18z m65 -3 c1 -9 0 -13 -4 -10 -3 4 -7 14 -8
22 -1 9 0 13 4 10 3 -4 7 -14 8 -22z m60 14 c4 -7 3 -10 -1 -5 -5 4 -18 -1
-29 -10 -21 -18 -21 -18 -2 5 22 26 23 26 32 10z m37 -5 c-3 -7 -6 -13 -8 -13
-2 0 -5 6 -8 13 -3 8 1 14 8 14 7 0 11 -6 8 -14z m147 3 c-7 -7 -13 -7 -20 0
-6 6 -3 10 10 10 13 0 16 -4 10 -10z m-276 -12 c3 -8 2 -12 -4 -9 -6 3 -10 10
-10 16 0 14 7 11 14 -7z m197 -1 c13 -16 12 -17 -3 -4 -10 7 -18 15 -18 17 0
8 8 3 21 -13z m-388 -13 c-3 -12 -8 -19 -11 -16 -5 6 5 36 12 36 2 0 2 -9 -1
-20z m24 -5 c0 -8 -4 -12 -9 -9 -5 3 -6 10 -3 15 9 13 12 11 12 -6z m263 10
c0 -2 -10 -9 -22 -15 -22 -11 -22 -10 -4 4 21 17 26 19 26 11z m438 -53 c2
-12 0 -22 -5 -23 -4 0 -16 -2 -25 -4 -24 -4 -44 21 -29 38 17 21 55 14 59 -11z
m3100 -45 c23 -22 40 -42 37 -45 -2 -3 -11 1 -20 8 -12 10 -15 10 -15 -1 0 -8
-8 -4 -20 9 -12 12 -25 22 -30 22 -6 0 -10 7 -10 15 0 8 -4 15 -9 15 -5 0 -12
10 -15 23 -6 22 -7 22 -21 3 -8 -11 -15 -15 -15 -10 0 6 5 15 12 22 14 14 42
-2 106 -61z m-3465 48 c-3 -9 -8 -14 -10 -11 -3 3 -2 9 2 15 9 16 15 13 8 -4z
m-48 -15 c-10 -11 -21 -18 -23 -15 -3 3 3 12 14 20 27 20 30 18 9 -5z m3391
-36 c1 -9 0 -13 -4 -10 -3 4 -7 14 -8 22 -1 9 0 13 4 10 3 -4 7 -14 8 -22z
m-3830 4 c3 -4 -1 -5 -10 -4 -8 1 -18 5 -22 8 -3 4 1 5 10 4 8 -1 18 -5 22 -8z
m808 -68 c-6 -6 -15 -5 -24 1 -13 9 -12 10 3 5 9 -3 17 0 17 6 0 6 3 8 7 5 4
-4 2 -12 -3 -17z m3199 -20 c3 -11 1 -18 -4 -14 -5 3 -9 12 -9 20 0 20 7 17
13 -6z m-3940 -3 c4 3 7 1 7 -5 0 -17 -16 -15 -31 6 -12 15 -12 16 2 5 9 -7
19 -10 22 -6z m278 -34 c12 -16 12 -17 -2 -6 -9 7 -20 9 -24 5 -5 -4 -5 -1 -1
6 9 16 11 15 27 -5z m143 -5 c-4 -7 -16 -19 -26 -26 -10 -7 -15 -18 -12 -24 4
-7 2 -8 -4 -4 -15 9 -65 -40 -57 -54 4 -6 1 -9 -7 -8 -7 2 -12 -2 -11 -7 1 -6
-12 -12 -30 -13 -17 -2 -36 -7 -43 -13 -7 -6 -18 -8 -23 -5 -12 8 -49 -12 -68
-34 -11 -13 -12 -13 -7 3 3 9 1 17 -5 17 -6 0 -11 -5 -11 -12 0 -6 -3 -8 -7
-5 -3 4 -12 2 -19 -4 -9 -8 -11 -5 -7 10 3 12 9 18 14 15 5 -3 12 1 15 9 3 8
15 17 26 20 11 3 17 10 14 16 -4 5 -1 13 5 17 8 4 9 3 5 -4 -4 -7 -1 -12 8
-12 8 0 17 4 20 9 8 12 56 20 56 9 0 -12 67 28 99 59 13 13 29 23 36 23 7 0
18 7 25 15 15 18 24 20 14 3z m-490 -10 c-3 -4 -9 -8 -15 -8 -5 0 -9 4 -9 8 0
5 7 9 15 9 8 0 12 -4 9 -9z m216 -16 c0 -4 -10 -9 -22 -9 -18 -2 -20 0 -8 7
18 12 30 13 30 2z m523 -12 c-3 -11 -9 -20 -15 -20 -5 0 -4 9 2 20 6 11 12 20
14 20 2 0 2 -9 -1 -20z m-570 -8 c12 -3 -48 -52 -63 -52 -6 0 -8 -5 -5 -10 4
-6 3 -10 -2 -9 -18 3 -30 -2 -53 -23 -14 -13 -26 -22 -27 -20 -8 6 -23 1 -19
-7 3 -5 0 -9 -7 -8 -39 1 -49 -4 -42 -20 5 -14 4 -15 -6 -6 -10 10 -9 17 6 33
10 11 21 18 25 15 4 -2 22 14 39 35 18 22 36 38 41 35 5 -3 14 4 20 15 6 11
16 18 22 14 7 -4 2 -13 -13 -25 -13 -9 -28 -15 -33 -12 -5 3 -6 1 -2 -5 5 -8
13 -9 25 -3 24 13 44 38 38 48 -5 7 28 10 56 5z m532 -24 c3 -16 -2 -27 -16
-36 -12 -8 -24 -10 -27 -6 -4 4 -1 9 6 11 6 3 9 10 6 15 -5 7 -2 8 5 4 8 -5
12 -3 10 5 -6 44 8 50 16 7z m3116 15 c13 -16 12 -17 -3 -4 -17 13 -22 21 -14
21 2 0 10 -8 17 -17z m-3157 -18 c-4 -8 -10 -15 -15 -15 -4 0 -6 -7 -3 -15 4
-9 0 -15 -10 -15 -9 0 -16 -5 -16 -10 0 -11 -37 -9 -57 3 -6 4 -14 3 -17 -2
-4 -5 -3 -11 1 -14 5 -2 3 -3 -3 -1 -6 1 -17 -3 -23 -9 -9 -9 -14 -8 -21 3 -7
11 -4 17 11 22 10 4 21 6 23 5 2 -1 14 7 27 18 13 11 21 16 17 11 -9 -10 9
-36 24 -36 6 0 6 6 -1 14 -8 9 -8 16 -2 20 5 4 12 2 16 -4 3 -5 11 -10 17 -10
6 0 5 7 -3 17 -8 9 -9 14 -3 10 7 -4 17 0 24 8 16 19 21 19 14 0z m3093 -51
c-3 -3 -12 9 -21 27 -22 45 -20 50 5 11 12 -18 19 -35 16 -38z m-3552 36 c3
-6 -1 -7 -9 -4 -18 7 -21 14 -7 14 6 0 13 -4 16 -10z m3670 -8 c11 -6 17 -12
13 -12 -3 0 11 -17 33 -38 21 -22 39 -43 39 -47 0 -4 11 -23 25 -40 13 -18 21
-35 18 -39 -4 -3 -2 -6 4 -6 6 0 13 -9 16 -21 6 -24 5 -23 -51 16 -26 18 -45
41 -48 57 -4 16 -11 25 -17 21 -6 -3 -7 -1 -3 5 4 7 1 12 -6 12 -8 0 -9 3 -3
8 6 4 11 16 13 27 3 20 2 20 -13 1 -8 -11 -15 -15 -15 -10 0 6 6 16 13 23 10
11 8 12 -10 7 -15 -5 -28 0 -47 19 -14 14 -26 27 -26 29 0 7 47 -1 65 -12z
m259 -44 c-4 -6 1 -17 11 -25 11 -7 14 -13 8 -13 -16 0 -36 28 -28 40 3 5 8
10 11 10 3 0 2 -5 -2 -12z m-3650 -13 c3 -8 2 -14 -2 -14 -4 1 -9 0 -12 -1 -3
-1 -13 -3 -23 -5 -18 -3 -18 -3 -1 16 21 23 30 24 38 4z m3330 -66 c-5 -9 -2
-10 12 -5 14 5 16 4 8 -4 -9 -9 -17 -8 -33 2 -11 7 -21 17 -21 22 0 4 7 3 15
-4 11 -9 15 -9 15 -1 0 6 -6 14 -14 17 -8 3 -22 18 -32 32 -13 21 -9 19 21
-10 23 -23 34 -41 29 -49z m-3674 51 c0 -5 -5 -10 -11 -10 -5 0 -7 5 -4 10 3
6 8 10 11 10 2 0 4 -4 4 -10z m-50 -20 c0 -5 -6 -10 -13 -10 -8 0 -14 -7 -14
-15 0 -11 6 -13 21 -9 12 4 18 3 14 -1 -4 -4 -22 -9 -40 -11 -32 -3 -32 -3
-13 12 20 16 20 16 -2 9 -33 -9 -28 9 5 22 36 14 42 15 42 3z m4090 0 c0 -5
-5 -10 -11 -10 -5 0 -7 5 -4 10 3 6 8 10 11 10 2 0 4 -4 4 -10z m-4062 -25
c-3 -3 -9 2 -12 12 -6 14 -5 15 5 6 7 -7 10 -15 7 -18z m262 10 c0 -7 -30 -13
-34 -7 -3 4 4 9 15 9 10 1 19 0 19 -2z m3840 -7 c0 -5 5 -6 10 -3 6 3 10 2 10
-3 0 -5 21 -23 46 -41 81 -59 223 -201 267 -270 70 -106 63 -112 -24 -21 -252
263 -290 300 -301 294 -6 -4 -8 -3 -5 3 4 5 -5 16 -18 23 -13 7 -22 16 -20 20
6 10 35 8 35 -2z m-3720 -20 c0 -6 -2 -9 -5 -6 -7 6 -43 -22 -95 -73 -45 -45
-65 -52 -82 -31 -9 11 -10 14 0 8 7 -4 12 -2 13 6 0 10 2 10 6 1 3 -9 10 -7
25 7 11 10 17 23 14 28 -3 6 1 13 10 16 8 3 12 10 9 16 -7 11 6 18 42 23 12 2
26 6 29 10 12 11 34 8 34 -5z m3314 -33 c-3 -8 2 -12 13 -12 13 2 18 -5 18
-25 0 -39 54 -79 56 -40 0 9 8 -1 17 -24 11 -27 22 -39 32 -37 13 4 13 3 0 -6
-17 -12 -30 -5 -30 15 0 8 -5 12 -11 9 -6 -5 -4 -16 7 -33 16 -24 16 -26 1
-13 -10 8 -17 9 -17 3 0 -6 9 -17 21 -25 17 -12 19 -19 10 -35 -9 -17 -8 -23
6 -34 23 -16 53 -55 36 -44 -7 4 -13 3 -13 -2 0 -17 13 -22 29 -9 14 11 14 10
2 -5 -12 -16 -9 -22 11 -19 5 0 8 -2 7 -7 -2 -16 14 -52 24 -52 6 0 8 -2 5 -5
-7 -8 -39 6 -34 14 3 4 1 13 -5 21 -6 11 -8 5 -5 -17 2 -18 -1 -33 -6 -33 -4
0 -7 16 -5 35 3 21 -1 39 -9 46 -12 10 -13 5 -10 -24 5 -40 -2 -51 -24 -35
-12 8 -11 9 4 4 15 -5 17 -3 11 11 -5 10 -8 34 -8 53 0 19 -2 29 -4 22 -3 -6
-10 -9 -15 -6 -7 4 -8 2 -4 -5 13 -20 17 -61 6 -61 -5 0 -9 6 -7 13 1 6 -3 11
-9 10 -6 -1 -11 4 -11 12 0 8 4 12 9 9 4 -3 8 -1 8 4 0 6 -6 12 -14 15 -7 3
-13 16 -12 29 1 13 -4 29 -11 36 -7 8 -11 18 -8 23 4 5 1 9 -4 9 -6 0 -10 3
-9 8 1 4 -3 17 -10 30 -14 24 -10 27 18 12 13 -7 19 -6 24 6 7 17 0 34 -14 34
-5 0 -7 -7 -4 -15 7 -18 -5 -19 -26 -4 -13 9 -12 10 2 5 12 -3 15 -1 11 10 -4
12 0 15 17 12 13 -1 25 2 27 8 2 6 -7 10 -19 9 -29 -3 -61 13 -53 26 4 5 0 9
-7 10 -11 0 -11 2 0 6 10 4 9 10 -6 27 -26 28 -35 57 -17 50 8 -3 11 -12 9
-19z m46 1 c14 -18 14 -18 -7 -6 -12 8 -19 18 -16 23 3 4 6 7 7 5 1 -2 8 -12
16 -22z m-3147 -11 c-3 -9 -8 -14 -10 -11 -3 3 -2 9 2 15 9 16 15 13 8 -4z
m3167 -25 c-8 -5 -17 -7 -19 -4 -3 3 1 9 9 14 8 5 17 7 19 4 3 -3 -1 -9 -9
-14z m14 -24 c-3 -9 -12 -12 -22 -9 -15 6 -9 11 25 22 1 1 0 -5 -3 -13z
m-3919 -6 c3 -5 1 -10 -4 -10 -6 0 -11 5 -11 10 0 6 2 10 4 10 3 0 8 -4 11
-10z m498 -15 c-3 -9 -8 -14 -10 -11 -3 3 -2 9 2 15 9 16 15 13 8 -4z m-513
-9 c0 -2 -7 -9 -15 -16 -13 -11 -14 -10 -9 4 5 14 24 23 24 12z m483 -9 c6
-15 -29 -21 -38 -6 -3 5 1 6 9 3 9 -3 16 -1 16 5 0 15 7 14 13 -2z m3791 -25
c3 -5 -1 -9 -9 -9 -8 0 -12 4 -9 9 3 4 7 8 9 8 2 0 6 -4 9 -8z m-3819 -21 c3
-5 0 -13 -6 -17 -7 -4 -9 -3 -5 4 3 6 -2 13 -11 15 -16 4 -16 5 -1 6 9 0 19
-3 23 -8z m175 -42 c-6 -10 -13 -19 -16 -19 -2 0 0 8 5 19 6 10 7 22 3 26 -4
5 -1 5 6 1 9 -5 9 -12 2 -27z m3395 21 c3 -6 -1 -7 -9 -4 -18 7 -21 14 -7 14
6 0 13 -4 16 -10z m-3428 -24 c-23 -17 -22 -26 4 -26 l21 0 -21 -33 c-11 -19
-19 -37 -16 -40 3 -4 2 -5 -1 -3 -3 2 -17 -7 -31 -20 -14 -13 -29 -21 -34 -19
-4 3 -10 1 -14 -5 -3 -5 0 -10 7 -11 7 0 3 -5 -10 -11 -13 -6 -21 -16 -19 -22
2 -6 -9 -23 -24 -38 l-28 -26 -15 22 c-20 32 -6 52 25 36 l24 -13 -20 23 c-11
13 -14 20 -7 16 7 -4 12 -2 12 4 0 8 10 10 28 6 24 -6 25 -5 10 7 -17 13 -17
15 2 32 11 10 20 24 20 31 0 7 4 16 10 19 6 4 7 -1 3 -12 -6 -16 -5 -16 10 -5
14 12 16 11 12 -7 -2 -12 0 -19 6 -16 12 8 12 45 0 45 -5 0 0 18 12 39 12 22
25 37 29 35 5 -3 8 0 8 7 0 7 3 9 7 5 5 -4 0 -13 -10 -20z m3404 9 c5 4 6 -1
2 -10 -5 -13 -7 -14 -14 -3 -5 7 -8 18 -8 23 0 6 3 4 6 -3 2 -6 9 -10 14 -7z
m-3917 -20 c-9 -14 -19 -24 -21 -21 -6 6 20 46 30 46 4 0 0 -11 -9 -25z m241
5 c-3 -5 -12 -10 -18 -10 -7 0 -6 4 3 10 19 12 23 12 15 0z m-48 -22 c-3 -8
-6 -5 -6 6 -1 11 2 17 5 13 3 -3 4 -12 1 -19z m234 9 c-6 -8 -7 -18 -3 -22 4
-5 2 -5 -5 -1 -7 3 -14 -2 -18 -14 -3 -11 -13 -20 -21 -20 -8 0 -13 -3 -13 -7
3 -20 -2 -34 -10 -29 -11 7 -23 -22 -15 -35 3 -5 1 -9 -4 -9 -5 0 -12 11 -14
25 -4 17 4 35 24 60 16 19 34 35 39 35 6 0 17 7 25 15 19 19 30 20 15 2z m285
-22 c-17 -25 -50 -33 -61 -15 -3 5 0 7 7 5 8 -3 25 6 38 20 29 31 39 25 16
-10z m-596 7 c0 -5 -7 -9 -15 -9 -8 0 -12 4 -9 9 3 4 9 8 15 8 5 0 9 -4 9 -8z
m130 -2 c0 -5 -2 -10 -4 -10 -3 0 -8 5 -11 10 -3 6 -1 10 4 10 6 0 11 -4 11
-10z m3683 -13 c4 3 7 1 7 -5 0 -14 -2 -14 -24 -6 -9 3 -16 11 -16 16 0 7 5 6
13 -1 8 -6 17 -8 20 -4z m-3843 -7 c8 -5 11 -10 5 -10 -5 0 -17 5 -25 10 -8 5
-10 10 -5 10 6 0 17 -5 25 -10z m114 -7 c3 -8 1 -11 -5 -8 -5 4 -16 2 -24 -5
-11 -9 -12 -7 -8 8 5 22 30 25 37 5z m4026 -15 c14 -13 43 -36 65 -53 80 -59
102 -85 109 -125 3 -21 9 -47 12 -57 4 -10 -9 0 -27 21 -19 22 -50 58 -69 80
-88 101 -132 156 -124 156 5 0 20 -10 34 -22z m-3587 -9 c-8 -8 -13 -7 -18 2
-5 8 -4 10 3 5 7 -4 12 -2 12 5 0 7 3 9 7 6 4 -4 2 -12 -4 -18z m-693 -14 c0
-8 -2 -15 -4 -15 -2 0 -6 7 -10 15 -3 8 -1 15 4 15 6 0 10 -7 10 -15z m660 -4
c0 -5 -13 -19 -30 -31 -35 -25 -39 -16 -8 17 22 24 38 30 38 14z m-625 -32
c-3 -4 -13 -5 -22 -2 -11 4 -13 8 -5 11 7 2 9 9 5 15 -4 7 1 6 10 -2 9 -7 14
-17 12 -22z m4016 4 c13 -16 12 -17 -3 -4 -17 13 -22 21 -14 21 2 0 10 -8 17
-17z m-4066 -3 c-3 -5 2 -10 12 -10 15 0 16 -2 3 -10 -9 -6 -17 -5 -22 3 -11
17 -10 27 3 27 5 0 7 -4 4 -10z m710 -31 c-28 -28 -34 -38 -20 -34 17 6 18 5
5 -7 -8 -7 -16 -20 -18 -28 -2 -8 -9 -21 -15 -28 -6 -8 -12 -21 -13 -29 -3
-16 -44 -57 -76 -74 -22 -12 -22 -12 -5 15 10 15 16 30 13 35 -3 4 6 23 19 41
13 18 21 38 18 43 -4 6 0 8 10 4 11 -4 14 -2 10 9 -4 10 0 12 11 8 9 -3 16 -1
16 5 0 10 69 80 80 81 2 0 -14 -18 -35 -41z m-105 11 c0 -5 -5 -10 -11 -10 -5
0 -7 5 -4 10 3 6 8 10 11 10 2 0 4 -4 4 -10z m-40 -40 c0 -5 -5 -10 -11 -10
-5 0 -7 5 -4 10 3 6 8 10 11 10 2 0 4 -4 4 -10z m3863 -150 l31 -45 -64 58
c-37 33 -74 77 -87 105 l-23 47 56 -60 c31 -33 70 -80 87 -105z m-3883 110 c0
-5 -4 -10 -10 -10 -5 0 -10 5 -10 10 0 6 5 10 10 10 6 0 10 -4 10 -10z m3483
-5 c4 8 17 15 29 15 18 0 20 -2 8 -9 -8 -6 -17 -8 -21 -5 -4 2 -10 -5 -14 -16
-3 -11 -11 -20 -16 -20 -6 0 -7 5 -4 10 3 6 -1 13 -9 16 -9 3 -16 11 -16 17 0
5 8 2 19 -7 16 -15 19 -15 24 -1z m-3508 -15 c3 -5 0 -7 -8 -4 -10 3 -13 -3
-12 -23 1 -26 -1 -28 -32 -27 -18 1 -33 -3 -33 -8 0 -6 7 -8 15 -4 11 4 15 -1
15 -22 0 -15 0 -35 0 -44 0 -34 -3 -47 -12 -42 -4 3 -8 -3 -8 -12 0 -10 -3
-15 -6 -11 -3 3 -8 38 -10 77 -3 65 -1 73 16 77 12 3 17 10 13 17 -4 6 0 5 9
-2 13 -10 18 -10 24 -1 5 8 3 9 -5 4 -10 -6 -11 -3 -2 14 13 23 26 27 36 11z
m3565 -2 c0 -6 -3 -8 -7 -5 -9 9 -44 -23 -37 -34 3 -5 0 -9 -5 -9 -15 0 -14 6
5 35 17 26 44 34 44 13z m-3189 -31 c-10 -9 -11 -8 -5 6 3 10 9 15 12 12 3 -3
0 -11 -7 -18z m3209 9 c0 -7 9 -25 20 -38 10 -14 16 -28 13 -32 -3 -3 -2 -6 4
-6 11 0 28 -49 20 -56 -2 -2 -13 4 -25 14 -12 11 -20 21 -17 24 3 2 -10 21
-29 41 -19 20 -30 37 -25 37 5 0 6 6 3 13 -2 7 4 13 16 14 11 1 20 -4 20 -11z
m-3583 -28 c-3 -7 -5 -2 -5 12 0 14 2 19 5 13 2 -7 2 -19 0 -25z m333 22 c8
-5 12 -11 10 -14 -3 -2 -14 2 -24 10 -22 15 -10 19 14 4z m-515 -40 c-2 -11 2
-20 8 -20 8 0 7 -3 -2 -9 -8 -5 -11 -16 -8 -24 3 -8 -5 -24 -19 -36 -13 -11
-24 -17 -24 -12 0 6 10 17 22 25 12 9 18 16 12 16 -6 0 -21 -12 -35 -26 -43
-46 -109 -72 -90 -35 6 10 7 22 3 26 -4 5 -1 5 6 1 7 -4 9 -13 5 -19 -3 -7 3
-4 15 7 12 10 19 23 15 29 -3 5 -2 7 4 4 16 -10 82 40 78 60 -1 10 0 21 2 26
8 13 12 7 8 -13z m3735 -6 c0 -2 -7 -4 -15 -4 -8 0 -15 4 -15 10 0 5 7 7 15 4
8 -4 15 -8 15 -10z m-3690 -4 c0 -5 -2 -10 -4 -10 -3 0 -8 5 -11 10 -3 6 -1
10 4 10 6 0 11 -4 11 -10z m130 6 c0 -3 -4 -8 -10 -11 -5 -3 -10 -1 -10 4 0 6
5 11 10 11 6 0 10 -2 10 -4z m4039 -41 c0 -5 -4 -3 -9 5 -5 8 -9 22 -9 30 0
16 17 -16 18 -35z m-3850 9 c-6 -7 -16 -11 -22 -7 -6 4 -8 0 -4 -9 3 -10 -6
-27 -24 -44 -16 -15 -29 -23 -29 -18 0 5 9 16 19 24 11 7 18 17 16 21 -7 11
36 60 46 53 6 -4 6 -11 -2 -20z m-784 -16 c-7 -32 -13 -32 -11 1 0 16 4 27 8
25 4 -2 5 -14 3 -26z m962 2 c-3 -12 2 -20 14 -23 21 -6 25 3 9 19 -7 7 -7 11
3 11 8 0 13 -14 13 -41 1 -35 -1 -37 -9 -18 -13 28 -32 29 -34 2 -1 -12 3 -18
8 -14 19 11 37 -30 34 -73 -2 -24 0 -41 4 -38 4 2 8 -2 8 -10 0 -8 -4 -12 -9
-9 -4 3 -8 -2 -8 -11 0 -9 -4 -13 -10 -10 -5 3 -20 -1 -33 -10 -22 -14 -26
-14 -37 0 -7 8 -9 15 -4 15 5 0 1 7 -9 14 -16 12 -17 18 -6 38 7 13 12 27 11
31 -1 5 2 6 7 3 5 -3 12 1 15 10 3 8 2 12 -4 9 -16 -10 -34 6 -19 16 12 8 11
11 -1 19 -8 5 -10 10 -5 11 6 1 15 3 20 4 6 2 16 3 23 4 7 0 10 6 7 11 -4 6
-11 8 -16 5 -5 -4 -9 -1 -9 5 0 7 6 10 14 7 11 -4 13 1 11 24 -3 19 0 27 6 23
6 -3 9 -14 6 -24z m3200 4 c8 -2 18 -5 21 -8 11 -12 -36 0 -50 12 -8 6 -19 8
-23 4 -5 -4 -5 -1 -1 6 6 10 11 11 23 0 8 -6 22 -13 30 -14z m-3580 10 c-3 -3
-12 -4 -19 -1 -8 3 -5 6 6 6 11 1 17 -2 13 -5z m358 -14 c3 -5 1 -10 -4 -10
-6 0 -11 5 -11 10 0 6 2 10 4 10 3 0 8 -4 11 -10z m3135 6 c0 -2 -7 -7 -16
-10 -8 -3 -12 -2 -9 4 6 10 25 14 25 6z m50 -29 c0 -8 -4 -7 -12 1 -8 8 -15 8
-24 1 -8 -7 -14 -6 -20 2 -4 7 -3 9 4 5 6 -3 13 -2 17 3 7 13 35 3 35 -12z
m-3400 9 c0 -2 -7 -7 -16 -10 -8 -3 -12 -2 -9 4 6 10 25 14 25 6z m3353 -41
c-3 -9 -8 -14 -10 -11 -3 3 -2 9 2 15 9 16 15 13 8 -4z m-3408 -13 c-3 -3 -11
0 -18 7 -9 10 -8 11 6 5 10 -3 15 -9 12 -12z m3425 -7 c-6 -8 -9 -18 -6 -23 3
-5 -1 -9 -9 -9 -8 0 -15 2 -15 4 0 10 26 43 34 43 4 0 3 -7 -4 -15z m-3430
-11 c0 -2 -7 -4 -15 -4 -8 0 -15 4 -15 10 0 5 7 7 15 4 8 -4 15 -8 15 -10z
m3571 -9 c8 5 11 4 6 0 -4 -5 2 -18 13 -30 14 -15 24 -47 32 -103 7 -45 15
-82 18 -82 3 0 6 -19 8 -42 4 -55 -9 -41 -38 42 -12 36 -33 94 -45 130 -13 36
-26 76 -30 90 -7 24 -6 24 7 6 10 -12 20 -16 29 -11z m-3548 3 c-6 -7 -9 -21
-8 -31 3 -15 1 -16 -11 -6 -13 10 -12 14 2 30 19 21 32 26 17 7z m3477 -39 c0
-10 9 -38 20 -63 13 -32 16 -47 8 -52 -6 -4 -8 -3 -4 4 3 6 2 13 -4 17 -5 3
-10 14 -10 24 0 10 -6 24 -14 30 -8 7 -16 30 -18 52 -3 35 -2 38 9 23 7 -10
13 -26 13 -35z m-3838 34 c-6 -2 -9 -10 -6 -15 4 -7 2 -8 -5 -4 -13 9 -5 26
12 25 9 0 8 -2 -1 -6z m295 -24 c0 -21 -3 -26 -9 -16 -4 9 -5 22 -2 31 9 23
11 20 11 -15z m3497 4 c4 -10 4 -14 0 -10 -4 4 -12 -1 -19 -10 -9 -13 -14 -13
-20 -3 -5 8 -4 11 3 6 6 -3 13 3 17 14 8 24 11 25 19 3z m-3614 -3 c0 -5 -5
-10 -11 -10 -5 0 -7 5 -4 10 3 6 8 10 11 10 2 0 4 -4 4 -10z m144 -6 c3 -8 2
-12 -4 -9 -6 3 -10 10 -10 16 0 14 7 11 14 -7z m-159 -34 c3 -6 -1 -7 -9 -4
-18 7 -21 14 -7 14 6 0 13 -4 16 -10z m175 0 c0 -5 -7 -7 -15 -4 -8 4 -15 8
-15 10 0 2 7 4 15 4 8 0 15 -4 15 -10z m3465 0 c3 -6 -1 -7 -9 -4 -18 7 -21
14 -7 14 6 0 13 -4 16 -10z m576 -31 c13 -26 7 -24 -22 7 -17 19 -19 23 -6 18
10 -3 22 -15 28 -25z m-594 15 c-3 -3 -12 -4 -19 -1 -8 3 -5 6 6 6 11 1 17 -2
13 -5z m-3630 -36 c-3 -7 -5 -2 -5 12 0 14 2 19 5 13 2 -7 2 -19 0 -25z m3634
-1 c-10 -9 -11 -8 -5 6 3 10 9 15 12 12 3 -3 0 -11 -7 -18z m-3546 -7 c-3 -5
-1 -11 4 -11 6 -1 16 -3 21 -4 6 -1 16 -3 23 -4 8 -1 8 -4 -3 -11 -9 -5 -19
-5 -27 2 -7 6 -13 7 -13 2 0 -5 -4 -2 -9 6 -9 13 -6 30 5 30 3 0 2 -4 -1 -10z
m3590 0 c3 -5 1 -10 -4 -10 -6 0 -11 5 -11 10 0 6 2 10 4 10 3 0 8 -4 11 -10z
m460 -82 c3 -16 1 -28 -5 -28 -5 0 -10 1 -10 3 -1 1 -3 29 -5 62 -4 51 -3 55
5 25 5 -19 12 -47 15 -62z m-3730 63 c3 -5 2 -12 -3 -15 -5 -3 -9 1 -9 9 0 17
3 19 12 6z m3469 -81 c-7 -7 -11 5 -11 32 l-2 43 11 -33 c7 -21 8 -36 2 -42z
m-3661 29 c-9 -9 -12 -7 -10 9 1 14 5 18 11 12 7 -7 6 -14 -1 -21z m4061 -34
c3 -11 7 -43 9 -71 3 -29 8 -57 11 -63 9 -14 -39 7 -86 39 -20 14 -44 37 -52
52 -16 26 -16 27 3 23 11 -2 29 -1 41 2 19 5 21 10 14 46 l-6 40 31 -24 c17
-13 33 -33 35 -44z m-3853 32 c-10 -9 -11 -8 -5 6 3 10 9 15 12 12 3 -3 0 -11
-7 -18z m56 4 c0 -11 -5 -18 -9 -15 -4 3 -5 11 -1 19 7 21 12 19 10 -4z m-442
-11 c3 -5 1 -10 -4 -10 -6 0 -11 5 -11 10 0 6 2 10 4 10 3 0 8 -4 11 -10z
m3735 -145 c16 -55 16 -66 4 -76 -7 -6 -12 -15 -9 -19 3 -5 1 -11 -5 -15 -6
-4 -8 -9 -6 -13 2 -4 -2 -13 -10 -19 -16 -16 -21 -8 -28 48 -5 38 -17 88 -42
177 -5 16 -2 22 10 22 9 0 16 8 16 17 0 33 51 -57 70 -122z m-3362 84 c-2 -6
-8 -10 -13 -10 -5 0 -11 4 -13 10 -2 6 4 11 13 11 9 0 15 -5 13 -11z m-168
-39 c0 -5 -4 -10 -10 -10 -5 0 -10 5 -10 10 0 6 5 10 10 10 6 0 10 -4 10 -10z
m3864 -24 c-5 -12 28 -80 62 -131 8 -11 14 -33 14 -50 l0 -30 -30 32 c-17 18
-30 40 -30 51 0 10 -3 22 -7 26 -5 4 -8 11 -9 14 0 4 -4 24 -8 44 -5 20 -5 41
-1 47 9 16 15 14 9 -3z m246 -21 c0 -5 -5 -3 -10 5 -5 8 -10 20 -10 25 0 6 5
3 10 -5 5 -8 10 -19 10 -25z m-4130 15 c0 -5 -7 -7 -15 -4 -8 4 -15 8 -15 10
0 2 7 4 15 4 8 0 15 -4 15 -10z m300 0 c0 -5 -5 -10 -11 -10 -5 0 -7 5 -4 10
3 6 8 10 11 10 2 0 4 -4 4 -10z m3382 -30 c3 -17 1 -27 -3 -23 -11 11 -20 65
-10 58 5 -2 11 -18 13 -35z m-3677 0 c-10 -11 -21 -18 -23 -15 -3 3 3 12 14
20 27 20 30 18 9 -5z m-239 -19 c-6 -9 -46 -22 -46 -15 0 3 10 9 23 14 29 11
29 11 23 1z m211 -31 c-1 -12 -5 -16 -10 -11 -5 5 -6 14 -3 20 11 16 15 13 13
-9z m4097 -10 c36 -17 66 -34 67 -38 7 -77 26 -135 60 -182 l31 -43 -33 24
c-19 12 -64 52 -102 88 -49 47 -70 75 -78 105 -14 52 -19 76 -15 76 2 0 33
-14 70 -30z m-4363 -17 c-12 -20 -14 -14 -5 12 4 9 9 14 11 11 3 -2 0 -13 -6
-23z m204 1 c13 5 15 1 9 -16 -6 -21 -5 -22 12 -8 18 14 18 14 0 -8 -22 -25
-41 -29 -32 -7 6 17 -26 38 -47 30 -8 -4 -14 0 -14 9 0 8 4 13 9 10 4 -3 8 0
8 7 0 8 7 5 20 -6 11 -10 26 -15 35 -11z m-285 -26 c0 -13 -18 -9 -24 5 -3 6
-3 1 0 -13 4 -14 12 -28 18 -32 8 -6 8 -8 0 -8 -13 0 -41 30 -28 30 5 0 1 5
-9 11 -14 8 -16 14 -7 24 9 11 16 12 31 2 10 -6 19 -15 19 -19z m57 -5 c0 -9
-4 -10 -10 -4 -5 5 -17 7 -26 4 -12 -4 -13 -2 -3 4 19 14 39 12 39 -4z m4149
-10 c-3 -3 -1 -16 4 -29 15 -38 1 -28 -16 11 -18 44 -18 51 1 35 9 -7 13 -15
11 -17z m-227 -6 c11 -27 4 -116 -10 -133 -5 -6 -10 -30 -11 -53 -1 -22 -3
-41 -4 -41 -2 0 -10 14 -19 30 -9 17 -23 30 -33 31 -10 0 -12 3 -5 5 7 3 10
16 7 32 -3 15 -1 46 4 70 7 29 7 42 -1 42 -6 0 -7 3 -4 6 4 4 13 1 21 -5 13
-11 16 -8 22 13 8 32 22 33 33 3z m173 -55 c17 -47 17 -47 -2 -22 -11 14 -20
30 -20 37 0 6 -3 20 -7 30 -3 10 -2 14 3 10 4 -4 16 -29 26 -55z m-4179 14 c4
-10 1 -13 -8 -9 -8 3 -12 9 -9 14 7 12 11 11 17 -5z m3927 8 c0 -8 -19 -13
-24 -6 -3 5 1 9 9 9 8 0 15 -2 15 -3z m178 -138 c23 -45 29 -68 25 -95 -3 -20
-5 -42 -6 -48 -1 -20 -13 -16 -51 17 -31 28 -55 90 -34 90 4 0 8 11 8 24 0 40
12 88 20 79 5 -4 22 -35 38 -67z m252 28 c0 -8 -4 -12 -10 -9 -5 3 -10 10 -10
16 0 5 5 9 10 9 6 0 10 -7 10 -16z m-3613 -49 c-15 -11 -16 -13 -2 -19 16 -6
21 -41 6 -51 -5 -3 -13 0 -17 6 -4 8 -3 9 4 5 16 -10 14 5 -3 28 -13 17 -13
22 2 38 9 10 19 15 22 12 3 -3 -2 -11 -12 -19z m3603 -82 c20 -57 27 -190 9
-159 -7 11 -13 49 -14 85 -1 36 -7 81 -13 100 -17 51 -1 28 18 -26z m-73 -5
c2 -18 5 -49 7 -68 4 -39 16 -90 25 -105 3 -5 6 -15 7 -21 1 -6 5 -22 8 -35 4
-15 -1 -10 -13 13 -12 20 -33 46 -48 58 -21 17 -24 23 -13 30 15 9 20 131 6
166 -6 15 -5 17 5 7 7 -7 14 -28 16 -45z m-60 -60 c-2 -7 0 -24 5 -36 6 -18 5
-23 -4 -20 -17 6 -23 68 -8 68 7 0 10 -6 7 -12z m-634 -57 c4 -1 6 -11 6 -23
-1 -17 -2 -19 -6 -5 -2 9 -11 17 -18 17 -8 0 -16 4 -19 9 -4 5 2 8 11 6 10 -2
21 -4 26 -4z m-13 -43 c0 -12 -3 -18 -7 -14 -11 10 -12 36 -2 36 5 0 9 -10 9
-22z m12 -30 c-5 -7 -12 -22 -14 -33 -3 -22 -36 -51 -46 -40 -3 3 -2 9 3 13 6
4 11 20 12 36 2 30 9 43 19 34 3 -4 1 -16 -6 -27 -6 -12 -8 -21 -6 -21 3 0 13
14 21 31 9 17 19 28 22 25 3 -3 1 -11 -5 -18z m862 -15 c8 -16 41 -56 73 -90
78 -84 97 -120 83 -159 l-11 -29 -27 30 c-111 127 -139 160 -154 187 -15 28
-16 34 -2 59 8 16 17 29 19 29 2 0 11 -12 19 -27z m-988 -178 c-1 -8 -8 -21
-16 -28 -10 -10 -11 -9 -4 3 5 8 9 18 10 23 3 14 4 17 8 17 2 0 3 -7 2 -15z
m198 -181 c3 -8 2 -12 -4 -9 -6 3 -10 10 -10 16 0 14 7 11 14 -7z m-172 -141
c-6 -3 -9 -10 -6 -15 4 -7 2 -8 -5 -4 -9 6 -9 11 0 22 6 8 15 12 18 8 3 -4 0
-9 -7 -11z"/>
<path d="M2841 4667 c-13 -21 -12 -21 5 -5 10 10 16 20 13 22 -3 3 -11 -5 -18
-17z"/>
<path d="M1390 4315 c-11 -13 -10 -14 4 -9 9 3 16 10 16 15 0 13 -6 11 -20 -6z"/>
<path d="M3560 4246 c0 -2 8 -10 18 -17 15 -13 16 -12 3 4 -13 16 -21 21 -21
13z"/>
<path d="M1027 3923 c4 -9 2 -14 -3 -10 -6 3 -16 1 -24 -5 -12 -8 -11 -9 5 -4
19 6 19 5 3 -8 -24 -18 -23 -29 0 -17 12 6 23 7 30 1 9 -7 9 -7 2 2 -15 19
-12 31 7 24 15 -6 15 -4 -2 14 -22 24 -26 25 -18 3z"/>
<path d="M816 3798 c3 -5 10 -6 15 -3 13 9 11 12 -6 12 -8 0 -12 -4 -9 -9z"/>
<path d="M943 3807 c0 -7 9 -13 19 -13 10 0 18 1 18 3 0 1 -8 7 -18 12 -13 7
-19 6 -19 -2z"/>
<path d="M259 3558 c-12 -23 -12 -23 10 -4 23 21 26 26 11 26 -5 0 -15 -10
-21 -22z"/>
<path d="M161 3513 c-7 -8 -11 -16 -8 -19 2 -2 10 2 17 11 17 20 9 27 -9 8z"/>
<path d="M649 3493 c-13 -16 -12 -17 4 -4 9 7 17 15 17 17 0 8 -8 3 -21 -13z"/>
<path d="M3976 3519 c9 -10 22 -19 28 -19 6 0 5 4 -2 9 -8 4 -12 12 -10 16 1
5 -5 9 -15 11 -18 2 -18 2 -1 -17z"/>
<path d="M4040 3446 c0 -2 6 -9 14 -15 11 -9 16 -9 22 0 4 8 3 9 -4 5 -7 -4
-12 -2 -12 3 0 6 -4 11 -10 11 -5 0 -10 -2 -10 -4z"/>
<path d="M3955 3340 c3 -5 8 -10 11 -10 2 0 4 5 4 10 0 6 -5 10 -11 10 -5 0
-7 -4 -4 -10z"/>
<path d="M4016 3175 c-8 -22 -8 -25 5 -25 5 0 7 5 3 12 -5 7 -3 8 6 3 11 -7
11 -10 -2 -19 -15 -9 -14 -12 4 -28 14 -12 17 -18 7 -18 -11 0 -11 -2 1 -10
13 -9 13 -11 0 -21 -12 -9 -11 -10 5 -4 11 4 26 8 33 8 7 0 1 12 -14 28 -29
30 -31 38 -15 49 8 4 5 12 -8 24 -17 15 -19 15 -25 1z"/>
<path d="M659 3140 c-4 -24 -4 -30 4 -30 4 0 7 3 6 6 0 4 5 10 11 14 8 5 7 9
-4 13 -9 4 -17 2 -17 -3z"/>
<path d="M602 3064 c-12 -8 -22 -21 -22 -27 0 -8 3 -8 9 1 4 7 14 12 21 10 7
-2 14 5 15 15 4 21 5 21 -23 1z"/>
<path d="M545 3000 c-3 -5 -2 -10 4 -10 5 0 13 5 16 10 3 6 2 10 -4 10 -5 0
-13 -4 -16 -10z"/>
<path d="M505 2970 c-3 -5 1 -10 10 -10 9 0 13 5 10 10 -3 6 -8 10 -10 10 -2
0 -7 -4 -10 -10z"/>
<path d="M544 2791 c0 -22 4 -37 9 -34 4 2 5 9 2 14 -4 5 0 9 7 9 9 0 10 3 2
8 -6 4 -10 15 -8 25 1 9 -1 17 -5 17 -5 0 -8 -18 -7 -39z"/>
<path d="M4187 2886 c-3 -8 -2 -18 3 -21 13 -8 20 9 11 24 -6 10 -10 9 -14 -3z"/>
<path d="M944 2720 c0 -11 5 -16 15 -12 10 4 13 1 8 -11 -3 -9 -2 -19 3 -22 6
-4 10 -11 10 -17 0 -7 -5 -6 -14 1 -11 10 -17 7 -30 -10 -8 -12 -13 -26 -10
-31 8 -13 24 1 18 17 -4 9 0 12 13 10 10 -2 20 -4 23 -4 3 -1 -2 -5 -10 -11
-12 -8 -12 -10 3 -16 9 -3 14 -10 11 -16 -3 -5 -12 -4 -22 4 -10 8 -13 8 -9 1
4 -6 1 -14 -5 -17 -7 -2 -3 -4 9 -2 24 2 53 23 53 38 0 6 -8 7 -17 4 -15 -5
-14 -3 2 9 23 18 27 71 6 88 -8 7 -16 11 -18 10 -1 -2 -4 -3 -5 -2 -24 7 -34
4 -34 -11z m58 -17 c-9 -4 -10 -8 -2 -18 11 -13 8 -13 -29 -6 -9 2 23 31 33
30 6 0 6 -3 -2 -6z m8 -47 c0 -2 -7 -7 -16 -10 -8 -3 -12 -2 -9 4 6 10 25 14
25 6z"/>
<path d="M2530 4979 c0 -5 5 -7 10 -4 6 3 10 8 10 11 0 2 -4 4 -10 4 -5 0 -10
-5 -10 -11z"/>
<path d="M1687 4966 c-10 -8 -14 -16 -10 -19 5 -3 14 3 21 14 14 22 13 23 -11
5z"/>
<path d="M1752 4948 c9 -13 19 -23 24 -22 5 1 15 -6 22 -15 11 -15 12 -15 6 0
-9 28 14 32 51 9 l34 -21 -2 27 c-1 15 -9 29 -17 31 -12 4 -12 3 -1 -5 9 -7
10 -11 2 -17 -6 -3 -21 4 -32 17 -11 13 -17 17 -13 9 5 -11 3 -13 -9 -8 -9 3
-23 -1 -32 -9 -13 -14 -19 -11 -17 8 1 3 -6 9 -15 12 -14 6 -14 4 -1 -16z"/>
<path d="M1710 4950 c0 -5 5 -10 11 -10 5 0 7 5 4 10 -3 6 -8 10 -11 10 -2 0
-4 -4 -4 -10z"/>
<path d="M2433 4953 c4 -6 2 -13 -5 -15 -8 -3 -6 -7 5 -11 23 -9 30 8 10 24
-9 8 -14 9 -10 2z"/>
<path d="M1650 4944 c0 -17 36 -33 51 -22 12 8 12 9 -1 5 -8 -2 -23 2 -32 11
-10 8 -18 11 -18 6z"/>
<path d="M1810 4925 c0 -2 10 -10 23 -16 20 -11 21 -11 8 4 -13 16 -31 23 -31
12z"/>
<path d="M1581 4812 c-17 -31 -13 -40 5 -14 9 13 14 26 11 29 -3 2 -10 -4 -16
-15z"/>
<path d="M1955 4650 c21 -24 26 -25 19 -6 -3 8 -13 17 -22 21 -13 5 -13 2 3
-15z"/>
<path d="M1987 4649 c7 -7 15 -10 18 -7 3 3 -2 9 -12 12 -14 6 -15 5 -6 -5z"/>
<path d="M3510 4602 c0 -4 9 -8 20 -9 11 -1 20 2 20 5 0 4 -9 8 -20 9 -11 1
-20 -2 -20 -5z"/>
<path d="M3537 4559 c4 -13 8 -18 11 -10 2 7 -1 18 -6 23 -8 8 -9 4 -5 -13z"/>
<path d="M1500 4528 c-2 -5 -3 -13 -4 -18 0 -6 -8 -15 -16 -21 -13 -9 -12 -10
2 -6 9 3 19 1 22 -6 3 -8 5 -7 5 2 1 11 5 10 17 -5 14 -18 15 -18 4 4 -6 12
-8 28 -4 34 4 6 3 8 -4 4 -5 -3 -13 0 -15 6 -3 7 -6 10 -7 6z"/>
<path d="M1280 4507 c-11 -9 -15 -32 -15 -84 0 -52 -4 -73 -12 -73 -7 0 -13
-4 -13 -10 0 -5 7 -10 15 -10 8 0 15 -5 15 -11 0 -5 -5 -7 -12 -3 -6 4 -8 3
-5 -3 9 -15 52 -8 52 8 0 8 4 19 7 25 4 5 5 23 3 40 -2 16 -6 51 -9 78 -6 57
-6 58 -26 43z m20 -187 c0 -5 -2 -10 -4 -10 -3 0 -8 5 -11 10 -3 6 -1 10 4 10
6 0 11 -4 11 -10z"/>
<path d="M1349 4323 c-13 -16 -12 -17 4 -4 9 7 17 15 17 17 0 8 -8 3 -21 -13z"/>
<path d="M1190 4299 c0 -5 5 -7 10 -4 6 3 10 8 10 11 0 2 -4 4 -10 4 -5 0 -10
-5 -10 -11z"/>
<path d="M575 4032 c-3 -11 -15 -24 -28 -30 -12 -6 -17 -11 -10 -11 19 -1 68
45 55 53 -6 3 -13 -2 -17 -12z"/>
<path d="M518 4013 c7 -3 16 -2 19 1 4 3 -2 6 -13 5 -11 0 -14 -3 -6 -6z"/>
<path d="M466 4002 c-3 -5 1 -9 9 -9 8 0 15 4 15 9 0 4 -4 8 -9 8 -6 0 -12 -4
-15 -8z"/>
<path d="M39 3808 c14 -19 32 -15 30 5 0 8 -2 8 -6 -1 -4 -10 -8 -10 -21 0
-15 12 -16 11 -3 -4z"/>
<path d="M683 3810 c-13 -5 -23 -11 -23 -14 0 -7 40 6 46 15 6 10 6 10 -23 -1z"/>
<path d="M42 3122 c-9 -3 -7 -9 8 -19 13 -9 25 -12 31 -6 11 11 -21 32 -39 25z"/>
<path d="M390 3060 c0 -5 5 -10 10 -10 6 0 10 5 10 10 0 6 -4 10 -10 10 -5 0
-10 -4 -10 -10z"/>
<path d="M316 3033 c-6 -14 -5 -15 5 -6 7 7 10 15 7 18 -3 3 -9 -2 -12 -12z"/>
<path d="M390 2900 c0 -5 5 -10 10 -10 6 0 10 5 10 10 0 6 -4 10 -10 10 -5 0
-10 -4 -10 -10z"/>
<path d="M927 2845 c-4 -8 -1 -17 6 -21 7 -4 9 -4 5 1 -4 4 -3 14 3 22 7 8 8
13 1 13 -5 0 -12 -7 -15 -15z"/>
<path d="M243 2708 c-4 -7 -8 -16 -8 -20 0 -12 -15 -22 -15 -10 0 7 -8 5 -20
-5 -11 -10 -20 -23 -20 -31 0 -7 -5 -10 -12 -6 -7 4 -8 3 -4 -5 9 -14 26 -5
26 15 0 8 5 12 10 9 6 -4 7 -12 3 -18 -12 -20 -11 -48 2 -43 7 2 18 -1 25 -7
10 -9 12 -9 7 4 -7 22 8 46 16 24 5 -10 3 -14 -5 -9 -7 4 -8 3 -4 -5 6 -9 11
-9 22 0 11 9 11 15 -4 35 -21 29 -32 30 -32 5 0 -11 -4 -22 -8 -25 -5 -3 -9 7
-9 22 0 34 31 41 47 11 11 -20 40 -27 40 -9 0 6 -6 10 -13 10 -16 0 -40 47
-32 61 4 5 4 9 1 9 -3 0 -8 -6 -13 -12z"/>
<path d="M270 2680 c6 -11 16 -20 22 -20 6 0 3 9 -7 20 -10 11 -20 20 -22 20
-2 0 1 -9 7 -20z"/>
<path d="M451 2617 c-6 -8 -8 -17 -4 -20 3 -4 -1 -7 -11 -7 -11 0 -15 5 -10
13 4 6 3 8 -1 4 -5 -4 -10 -15 -11 -23 -1 -9 -12 -23 -23 -31 -21 -14 -21 -14
-1 -35 21 -23 29 -51 8 -30 -17 17 -48 -3 -43 -30 3 -12 -1 -28 -7 -35 -9 -11
-7 -12 8 -7 18 5 18 4 -1 -11 -20 -16 -21 -19 -24 -51 0 -8 -5 -12 -11 -9 -5
3 -10 2 -10 -3 0 -6 7 -13 16 -16 10 -4 13 -2 8 6 -5 8 -2 9 12 4 10 -5 24 -9
31 -9 7 0 10 -4 7 -9 -3 -5 -9 -6 -14 -3 -5 3 -14 -3 -19 -14 -14 -25 -14 -42
0 -19 6 11 16 15 26 11 11 -4 14 -2 9 5 -8 14 30 35 47 26 6 -4 4 2 -6 14 -21
23 -58 26 -49 4 4 -12 1 -12 -16 -3 -12 7 -22 16 -22 22 0 6 6 7 13 3 8 -5 8
-2 -2 9 -8 10 -9 17 -3 17 6 0 14 -5 18 -11 5 -8 10 -6 16 5 5 9 14 14 20 10
7 -4 5 -10 -3 -16 -11 -8 -10 -9 3 -4 10 3 17 1 15 -6 -1 -6 4 -13 12 -16 8
-3 11 0 7 7 -4 6 -1 11 7 11 10 0 15 11 16 33 1 61 2 67 12 67 6 0 7 5 3 11
-4 8 -9 7 -16 -2 -7 -10 -8 -8 -3 7 5 18 2 21 -20 19 -22 -3 -23 -1 -15 16 13
23 22 25 14 4 -4 -8 -1 -15 6 -15 6 0 8 5 4 13 -6 9 -5 9 8 0 8 -7 18 -10 22
-6 4 4 4 0 0 -10 -5 -13 -2 -16 12 -10 13 5 15 3 9 -7 -5 -9 -4 -11 3 -6 9 5
7 14 -4 31 -9 14 -20 22 -25 19 -14 -8 -31 6 -22 19 5 7 8 21 8 32 0 11 6 25
15 32 8 7 10 13 4 13 -6 0 -17 -6 -23 -13z m-23 -76 c-18 -22 -25 -25 -31 -14
-6 9 -1 20 15 32 32 27 43 15 16 -18z m-14 -61 c9 7 19 10 23 6 3 -3 1 -6 -5
-6 -7 0 -12 -5 -12 -11 0 -5 4 -8 9 -5 5 3 15 -2 22 -11 12 -14 12 -16 0 -8
-11 6 -13 4 -8 -7 4 -11 0 -15 -11 -14 -9 2 -18 9 -20 17 -3 11 -1 11 7 -1 7
-9 11 -10 11 -3 0 16 -17 26 -25 13 -10 -17 14 -50 33 -44 14 5 15 4 2 -5 -12
-9 -13 -11 -1 -11 8 0 11 -3 8 -6 -4 -4 -18 1 -31 10 -15 9 -27 12 -31 6 -3
-6 -11 -10 -17 -10 -6 0 -3 10 8 22 10 12 13 18 7 14 -8 -4 -13 -2 -14 6 0 7
-2 21 -4 31 -2 9 1 15 6 11 5 -3 9 1 9 8 0 10 3 9 9 -1 8 -12 12 -13 25 -1z"/>
<path d="M414 2548 l-19 -23 23 19 c21 18 27 26 19 26 -2 0 -12 -10 -23 -22z"/>
<path d="M375 2450 c3 -5 8 -10 11 -10 2 0 4 5 4 10 0 6 -5 10 -11 10 -5 0 -7
-4 -4 -10z"/>
<path d="M137 2603 c3 -8 0 -12 -8 -10 -8 2 -11 2 -6 0 18 -11 5 -21 -20 -17
-19 3 -24 1 -14 -5 10 -6 10 -10 1 -16 -7 -4 -16 -2 -20 5 -5 9 -9 8 -13 -3
-3 -8 -3 -17 0 -20 8 -8 53 15 53 27 0 6 4 6 11 -1 9 -9 17 -8 34 3 21 14 24
13 44 -12 12 -15 21 -22 21 -17 0 5 -5 14 -12 21 -16 16 4 16 21 0 11 -11 11
-9 0 9 -10 16 -16 19 -26 11 -13 -10 -17 -1 -14 28 0 6 -12 10 -28 10 -20 0
-27 -4 -24 -13z m27 -2 c3 -4 -4 -17 -17 -27 -22 -19 -22 -19 -4 2 9 11 14 24
10 27 -3 4 -4 7 0 7 3 0 8 -4 11 -9z"/>
<path d="M175 2541 c-6 -11 13 -26 22 -17 4 3 1 6 -6 6 -7 0 -9 5 -6 10 3 6 4
10 1 10 -3 0 -7 -4 -11 -9z"/>
<path d="M1000 2537 c0 -2 6 -10 14 -16 11 -9 16 -9 22 1 4 7 4 10 -1 6 -4 -4
-14 -3 -22 3 -7 6 -13 9 -13 6z"/>
<path d="M30 2519 c0 -5 5 -7 10 -4 6 3 10 8 10 11 0 2 -4 4 -10 4 -5 0 -10
-5 -10 -11z"/>
<path d="M575 2520 c-3 -5 -1 -10 4 -10 6 0 11 5 11 10 0 6 -2 10 -4 10 -3 0
-8 -4 -11 -10z"/>
<path d="M175 2499 c-4 -6 -5 -12 -2 -15 2 -3 7 2 10 11 7 17 1 20 -8 4z"/>
<path d="M877 2495 c-4 -8 -3 -16 1 -19 4 -3 9 4 9 15 2 23 -3 25 -10 4z"/>
<path d="M490 2460 c0 -5 5 -10 11 -10 5 0 7 5 4 10 -3 6 -8 10 -11 10 -2 0
-4 -4 -4 -10z"/>
<path d="M139 2458 c-5 -18 -6 -38 -1 -34 7 8 12 36 6 36 -2 0 -4 -1 -5 -2z"/>
<path d="M967 2430 c-9 -11 -12 -20 -7 -20 6 0 10 -5 10 -11 0 -5 -4 -7 -10
-4 -5 3 -10 2 -10 -3 0 -12 26 -23 34 -15 3 3 1 14 -4 23 -10 20 10 46 25 32
5 -4 5 -1 1 6 -10 17 -19 15 -39 -8z"/>
<path d="M622 2413 c8 -10 13 -24 10 -32 -3 -9 0 -11 8 -6 9 5 11 4 6 -4 -4
-6 -12 -9 -17 -6 -5 4 -9 1 -9 -6 0 -7 -3 -10 -6 -7 -3 4 0 16 6 28 8 15 8 20
1 16 -6 -4 -11 -2 -11 5 0 8 -4 8 -15 -1 -8 -7 -15 -18 -15 -24 0 -6 4 -4 10
4 5 8 13 11 17 6 4 -4 -2 -16 -14 -26 l-22 -18 29 2 c41 2 65 27 51 54 -6 11
-18 23 -28 26 -15 6 -16 5 -1 -11z"/>
<path d="M882 2346 c7 -8 15 -12 17 -11 5 6 -10 25 -20 25 -5 0 -4 -6 3 -14z"/>
<path d="M955 2350 c-4 -6 -10 -8 -15 -5 -4 3 -14 -3 -21 -13 -12 -15 -12 -16
1 -6 8 6 23 10 33 9 9 -2 15 0 12 5 -3 5 1 11 7 13 9 4 10 6 1 6 -6 1 -15 -4
-18 -9z"/>
<path d="M285 2320 c-3 -5 -1 -10 4 -10 6 0 11 5 11 10 0 6 -2 10 -4 10 -3 0
-8 -4 -11 -10z"/>
<path d="M580 2320 c-12 -7 -10 -9 8 -7 12 0 22 5 22 9 0 11 -12 10 -30 -2z"/>
<path d="M940 2316 c0 -2 7 -7 16 -10 8 -3 12 -2 9 4 -6 10 -25 14 -25 6z"/>
<path d="M866 2300 c5 -8 9 -18 9 -22 0 -3 3 -9 7 -13 3 -4 5 0 4 9 -1 9 -8
22 -16 29 -10 10 -11 9 -4 -3z"/>
<path d="M283 2283 c0 -7 4 -13 8 -13 4 0 9 6 12 13 3 8 0 14 -7 14 -7 0 -13
-6 -13 -14z"/>
<path d="M1000 2296 c0 -2 7 -7 16 -10 8 -3 12 -2 9 4 -6 10 -25 14 -25 6z"/>
<path d="M533 2227 c1 -6 -3 -11 -10 -12 -6 0 -15 -4 -20 -9 -4 -5 -3 -6 3 -3
16 9 25 -18 11 -32 -8 -8 -8 -14 0 -22 8 -8 11 -6 10 7 -1 12 4 18 12 16 12
-3 12 0 2 12 -11 13 -10 18 2 30 8 8 16 14 18 13 2 -1 3 0 1 2 -6 10 -31 8
-29 -2z"/>
<path d="M235 2210 c-16 -17 -16 -20 -3 -15 9 4 19 13 22 21 7 19 2 18 -19 -6z"/>
<path d="M947 2219 c7 -7 15 -10 18 -7 3 3 -2 9 -12 12 -14 6 -15 5 -6 -5z"/>
<path d="M263 2198 c1 -7 -4 -12 -11 -10 -8 1 -11 -2 -7 -8 5 -8 11 -8 21 1 7
6 11 15 8 20 -8 13 -14 11 -11 -3z"/>
<path d="M450 2200 c0 -5 5 -10 10 -10 6 0 10 5 10 10 0 6 -4 10 -10 10 -5 0
-10 -4 -10 -10z"/>
<path d="M425 2180 c3 -5 1 -20 -5 -32 -10 -21 -10 -21 3 -6 8 10 16 16 19 13
2 -3 5 2 5 10 0 8 -7 17 -14 19 -8 3 -11 1 -8 -4z"/>
<path d="M624 2181 c4 -5 0 -11 -6 -14 -8 -2 -9 -8 -4 -13 5 -5 11 -4 13 4 3
6 10 9 16 5 7 -4 6 1 -2 10 -14 18 -26 23 -17 8z"/>
<path d="M770 2182 c0 -4 5 -13 11 -19 8 -8 7 -15 -4 -24 -9 -9 -12 -21 -7
-34 4 -11 6 -28 5 -37 -2 -11 3 -18 13 -19 11 0 13 -2 4 -6 -10 -4 -10 -8 0
-21 11 -13 10 -15 -4 -9 -18 7 -25 -12 -10 -27 4 -4 8 -12 8 -17 1 -5 2 -13 3
-19 0 -5 5 -10 10 -10 5 0 8 8 6 18 -1 9 3 23 9 31 9 12 7 13 -8 8 -15 -6 -17
-5 -7 6 12 15 13 127 1 127 -4 0 -8 6 -7 13 1 30 -4 47 -13 47 -5 0 -10 -4
-10 -8z"/>
<path d="M953 2175 c0 -8 4 -12 9 -9 5 3 6 10 3 15 -9 13 -12 11 -12 -6z"/>
<path d="M266 2145 c-9 -9 -16 -21 -16 -26 0 -6 -4 -8 -8 -5 -5 3 -16 -8 -26
-25 -10 -18 -22 -27 -29 -22 -7 4 -6 0 2 -10 11 -13 11 -17 1 -17 -8 0 -10 -3
-7 -6 4 -4 13 -2 20 4 8 7 18 8 23 4 5 -4 6 -3 1 2 -12 15 24 48 39 35 9 -7
14 -6 20 2 4 8 3 9 -4 5 -7 -4 -12 -2 -12 4 0 7 -8 9 -20 5 -19 -6 -19 -5 2
18 23 24 45 33 41 16 -2 -5 2 -9 8 -9 14 0 8 32 -7 37 -7 2 -19 -3 -28 -12z
m-50 -83 c-17 -16 -18 -16 -5 5 7 12 15 20 18 17 3 -2 -3 -12 -13 -22z"/>
<path d="M485 2139 c-4 -6 -4 -13 -1 -16 3 -4 6 -1 6 6 0 7 5 9 12 5 7 -4 8
-3 4 4 -9 15 -13 15 -21 1z"/>
<path d="M277 2133 c-10 -10 -8 -33 2 -33 6 0 9 9 8 20 -1 23 -1 22 -10 13z"/>
<path d="M450 2129 c0 -5 -6 -7 -12 -3 -7 4 -10 4 -6 -1 4 -4 2 -15 -4 -24
-10 -12 -7 -12 8 2 11 9 24 14 28 10 4 -4 4 0 0 10 -7 19 -14 22 -14 6z"/>
<path d="M600 2132 c0 -8 -5 -10 -12 -6 -7 4 -10 4 -6 0 3 -4 10 -8 15 -8 4
-1 13 -7 18 -15 9 -12 13 -11 30 2 20 16 20 16 0 6 -16 -8 -22 -5 -32 12 -7
12 -12 16 -13 9z"/>
<path d="M630 2129 c0 -5 5 -7 10 -4 6 3 10 8 10 11 0 2 -4 4 -10 4 -5 0 -10
-5 -10 -11z"/>
<path d="M593 2085 c0 -8 4 -12 9 -9 5 3 6 10 3 15 -9 13 -12 11 -12 -6z"/>
<path d="M643 2083 c-7 -2 -13 -9 -13 -14 0 -6 5 -7 10 -4 6 3 10 1 10 -4 0
-6 -4 -11 -10 -11 -5 0 -10 -5 -10 -11 0 -8 4 -8 14 0 8 7 14 21 13 32 -1 10
-1 19 -2 18 0 0 -6 -3 -12 -6z"/>
<path d="M610 2061 c0 -7 -5 -9 -12 -5 -7 5 -8 3 -3 -5 5 -9 10 -10 18 -2 6 6
8 14 4 18 -4 3 -7 1 -7 -6z"/>
<path d="M416 2042 c-3 -5 1 -9 9 -9 8 0 12 4 9 9 -3 4 -7 8 -9 8 -2 0 -6 -4
-9 -8z"/>
<path d="M973 2025 c0 -8 4 -12 9 -9 5 3 6 10 3 15 -9 13 -12 11 -12 -6z"/>
<path d="M637 2015 c-8 -8 -17 -12 -21 -10 -3 3 -4 2 -1 -2 3 -3 -1 -13 -8
-22 -11 -14 -10 -14 6 -2 16 13 17 12 12 -17 -3 -18 -1 -32 4 -32 6 0 8 9 6
20 -2 11 0 20 6 20 5 0 8 3 8 8 -1 4 0 9 1 12 4 12 8 40 5 40 -2 0 -10 -7 -18
-15z"/>
<path d="M110 1999 c0 -5 5 -7 10 -4 6 3 10 8 10 11 0 2 -4 4 -10 4 -5 0 -10
-5 -10 -11z"/>
<path d="M416 1998 c3 -5 10 -6 15 -3 13 9 11 12 -6 12 -8 0 -12 -4 -9 -9z"/>
<path d="M765 1970 c-3 -5 -3 -15 1 -21 3 -6 0 -16 -7 -21 -11 -8 -10 -9 3 -4
10 3 19 2 22 -2 3 -4 -5 -9 -16 -9 -27 -2 -39 -22 -31 -48 5 -18 4 -19 -13 -5
-18 14 -18 14 -5 -3 8 -9 11 -21 7 -24 -4 -4 -11 -1 -16 7 -6 8 -10 10 -10 5
0 -6 7 -21 16 -33 8 -12 11 -22 5 -22 -5 0 -15 8 -20 18 -6 9 -11 12 -11 7 0
-6 6 -17 13 -24 10 -11 9 -13 -5 -8 -10 3 -20 1 -24 -5 -4 -7 -3 -8 4 -4 8 4
12 0 12 -10 0 -17 1 -16 13 1 8 10 19 15 25 11 7 -4 10 1 7 14 -2 11 0 20 4
20 13 0 31 49 24 67 -4 11 -3 14 5 9 8 -5 10 -1 5 10 -4 11 -3 15 5 10 19 -11
24 12 7 37 -8 13 -12 27 -8 30 3 4 4 7 0 7 -3 0 -9 -4 -12 -10z m-9 -90 c0
-12 -4 -16 -9 -11 -5 5 -6 14 -3 20 10 15 12 14 12 -9z m-20 -58 c-17 -16 -18
-16 -5 5 7 12 15 20 18 17 3 -2 -3 -12 -13 -22z"/>
<path d="M595 1950 c-8 -13 12 -40 29 -40 6 0 3 5 -6 11 -10 5 -15 16 -12 24
7 17 -2 20 -11 5z"/>
<path d="M450 1939 c0 -5 5 -7 10 -4 6 3 10 8 10 11 0 2 -4 4 -10 4 -5 0 -10
-5 -10 -11z"/>
<path d="M550 1936 c0 -2 8 -10 18 -17 15 -13 16 -12 3 4 -13 16 -21 21 -21
13z"/>
<path d="M590 1902 c0 -15 28 -23 36 -9 4 7 4 9 -1 5 -4 -4 -14 -3 -22 3 -8 7
-13 8 -13 1z"/>
<path d="M976 1867 c3 -10 9 -15 12 -12 3 3 0 11 -7 18 -10 9 -11 8 -5 -6z"/>
<path d="M575 1849 c-4 -6 -5 -12 -2 -15 2 -3 7 2 10 11 7 17 1 20 -8 4z"/>
<path d="M469 1811 c8 -5 10 -14 6 -22 -6 -11 -5 -11 5 -2 14 12 6 33 -13 33
-8 0 -7 -3 2 -9z"/>
<path d="M1007 1800 c-9 -11 -12 -20 -7 -20 6 0 13 -1 17 -2 3 -2 7 7 8 20 2
27 3 26 -18 2z"/>
<path d="M555 1800 c3 -5 8 -10 11 -10 2 0 4 5 4 10 0 6 -5 10 -11 10 -5 0 -7
-4 -4 -10z"/>
<path d="M576 1773 c-6 -14 -5 -15 5 -6 7 7 10 15 7 18 -3 3 -9 -2 -12 -12z"/>
<path d="M576 1737 c3 -10 9 -15 12 -12 3 3 0 11 -7 18 -10 9 -11 8 -5 -6z"/>
<path d="M675 1730 c-3 -6 1 -7 9 -4 18 7 21 14 7 14 -6 0 -13 -4 -16 -10z"/>
<path d="M696 1715 c-10 -8 -23 -12 -29 -8 -6 3 -7 1 -3 -5 8 -13 39 -1 51 18
8 13 4 12 -19 -5z"/>
<path d="M480 1690 c12 -8 12 -10 1 -10 -8 0 -12 -2 -9 -5 3 -3 13 -2 22 1 14
5 15 9 4 15 -7 5 -17 9 -23 9 -5 0 -3 -5 5 -10z"/>
<path d="M577 1685 c3 -8 9 -12 14 -9 12 7 11 11 -5 17 -10 4 -13 1 -9 -8z"/>
<path d="M691 1674 c0 -11 3 -14 6 -6 3 7 2 16 -1 19 -3 4 -6 -2 -5 -13z"/>
<path d="M499 1668 c-7 -23 -4 -35 7 -35 10 0 11 4 3 13 -7 8 -6 14 3 17 10 4
10 6 1 6 -7 1 -13 0 -14 -1z"/>
<path d="M3860 1639 c0 -5 5 -7 10 -4 6 3 10 8 10 11 0 2 -4 4 -10 4 -5 0 -10
-5 -10 -11z"/>
<path d="M615 1631 c-3 -5 -2 -12 3 -15 5 -3 9 1 9 9 0 17 -3 19 -12 6z"/>
<path d="M490 1611 c0 -6 4 -13 10 -16 6 -3 7 1 4 9 -7 18 -14 21 -14 7z"/>
<path d="M590 1616 c0 -2 8 -10 18 -17 15 -13 16 -12 3 4 -13 16 -21 21 -21
13z"/>
<path d="M3851 1604 c0 -11 3 -14 6 -6 3 7 2 16 -1 19 -3 4 -6 -2 -5 -13z"/>
<path d="M592 1538 c2 -7 -2 -12 -9 -11 -7 2 -10 -4 -6 -13 3 -8 6 -14 7 -12
1 2 7 10 14 20 9 11 10 18 2 23 -6 4 -9 1 -8 -7z"/>
<path d="M525 1420 c-3 -6 1 -7 9 -4 18 7 21 14 7 14 -6 0 -13 -4 -16 -10z"/>
<path d="M3755 1202 c-19 -14 -14 -29 11 -29 18 0 22 3 14 12 -5 6 -7 15 -3
18 9 9 -10 8 -22 -1z"/>
<path d="M3724 1161 c4 -6 1 -11 -6 -11 -9 0 -9 -3 2 -10 14 -9 7 -14 -13 -11
-5 1 -6 -3 -2 -9 3 -5 1 -10 -6 -10 -8 0 -9 -3 0 -13 6 -8 9 -16 6 -19 -3 -2
2 -5 10 -5 11 0 12 4 5 11 -17 17 -11 29 8 15 9 -7 14 -10 10 -5 -4 5 -2 14 5
22 33 37 36 43 27 49 -6 3 -10 1 -10 -5 0 -8 -6 -7 -21 1 -15 8 -19 8 -15 0z
m26 -20 c0 -5 -8 -15 -17 -22 -16 -12 -17 -12 -6 2 7 9 10 19 6 22 -3 4 -1 7
5 7 7 0 12 -4 12 -9z"/>
<path d="M3674 1075 c0 -14 4 -25 8 -25 4 0 7 9 5 20 -5 29 -13 33 -13 5z"/>
<path d="M3645 1039 c-6 -8 -4 -10 5 -4 10 6 12 4 6 -11 -6 -15 -5 -17 5 -6 9
9 10 15 2 23 -8 8 -13 7 -18 -2z"/>
<path d="M3616 1021 c-4 -5 -2 -12 3 -15 5 -4 12 -2 15 3 4 5 2 12 -3 15 -5 4
-12 2 -15 -3z"/>
<path d="M3595 980 c-3 -5 -1 -10 4 -10 6 0 11 5 11 10 0 6 -2 10 -4 10 -3 0
-8 -4 -11 -10z"/>
<path d="M3626 978 c3 -5 10 -6 15 -3 13 9 11 12 -6 12 -8 0 -12 -4 -9 -9z"/>
</g>
</svg>
